<svg xmlns="http://www.w3.org/2000/svg" viewBox="0 0 249.18 220.12"><defs><style>.a{fill:#f9fcf8;stroke:#000;}.a,.b,.c,.d,.e{stroke-miterlimit:10;}.b{stroke:#f9fcf8;}.b,.c,.d,.e{stroke-width:3px;}.c,.f{fill:#fff;}.c,.d{stroke:#fff;}.e{stroke:#f8f8fc;}</style></defs><title>White-n-Black</title><path class="a" d="M124.54,204.86h0Z"/><path class="b" d="M172.85,82.22V184.35a15.13,15.13,0,0,1-7.1,12.82,23.75,23.75,0,0,1-6,2.67,131.57,131.57,0,0,1-34.85,5h-1.31a131.44,131.44,0,0,1-34.84-5,23.66,23.66,0,0,1-6-2.67,15.13,15.13,0,0,1-7.1-12.82V82.22Z"/><path class="c" d="M244.22,44.71c5.53,19.48,0,40.79-2.16,44a.08.08,0,0,1,0,0C235.82,103,225.25,106,225.25,106c2.25-.25,9.5,4,9.5,4-3,7.25-18.5,15.5-18.5,15.5a65.12,65.12,0,0,0,17.5-3.5c-6.5,25.5-30.5,27.5-30.5,27.5,22.37,2.84,35.33,9.41,35.33,9.41-18.74,20.88-33.83,18.34-33.83,18.34C210.5,185.28,227,198,227,198c-35.46,20.71-60-1-60-1,8.23-5,6.75-12.59,6.75-12.59V119l-.13,0c-26.1-8.29-24.17-25-23.88-26.8-2,10.63-5.22,14.81-5.22,14.81-.56-4.92.85-13.18,1.59-17,.14-.71.25-1.26.32-1.6-.13.54-.27,1.08-.42,1.6-4,15.21-11.57,24.12-20.24,29.12-.26.15-.9.43-1.16.58l-1.16-.65c-8.67-5-16.22-13.91-20.24-29.12-.15-.52-.29-1.06-.42-1.6.07.34.18.89.32,1.6.74,3.79,2.15,12.05,1.59,17,0,0-3.22-4.18-5.22-14.81.29,1.82,2.22,18.51-23.88,26.8l-.13,0v65.38S74,191.9,82.2,196.93c0,0-24.56,21.69-60,1,0,0,16.5-12.7,22.25-20.7,0,0-15.09,2.55-33.83-18.34,0,0,13-6.56,35.33-9.41,0,0-24-2-30.5-27.5a65.12,65.12,0,0,0,17.5,3.5s-15.5-8.25-18.5-15.5c0,0,7.25-4.25,9.5-4,0,0-10.57-3.08-16.79-17.27a.08.08,0,0,1,0,0C5,85.43-.57,64.12,5,44.64c.68-6.09.65-13.68-2.38-19.15,0,0,6.24.14,10.81,2.56h0c-.18-.35-4.05-8.22-2.64-20.19,0,0,5.16,1.8,18.24,8.46,0,0-3.48-9.54-2.4-13.86,0,0,13.31,9.07,20.84,9.12,2.71-.3,5.57-.48,8.6-.52C91.8,10.55,103,31.4,105.47,51.52c5.75-5.07,13.56-9.35,22.77-7.91a.22.22,0,0,1,0,.08c6.07,1,11.31,4.23,15.48,7.9,2.49-20.12,13.67-41,49.43-40.47,3,0,5.89.22,8.6.52,7.53-.05,20.84-9.12,20.84-9.12,1.08,4.32-2.4,13.86-2.4,13.86,13.08-6.66,18.24-8.46,18.24-8.46,1.41,12-2.46,19.84-2.64,20.19h0c4.57-2.42,10.81-2.56,10.81-2.56C243.57,31,243.54,38.62,244.22,44.71Z"/><path class="d" d="M14.72,57S6.58,100.2,53.52,95.41c0,0-15.17-5-16-8.94a216.35,216.35,0,0,1,24.11,0s-4.31-8.3-3.35-14c0,0,10,2.87,12.93,7.18,0,0,0-16.28,1.91-21.55a67.89,67.89,0,0,1,8.52,12s-.37-12,2-18.68a24.69,24.69,0,0,1,6.23,13.41s24.42-43.1-46.46-49.33c0,0,.06,3.12,1.08,12.34C41,26,27.34,21.21,25.74,20.69c-.67,6-.5,12.53,1,17.24L17.12,34.1S16.34,50.56,14.72,57Z"/><path class="d" d="M235.13,57s8.14,43.17-38.79,38.38c0,0,15.16-5,16-8.94a216.35,216.35,0,0,0-24.11,0s4.31-8.3,3.36-14c0,0-10.06,2.87-12.94,7.18,0,0,0-16.28-1.91-21.55a67.89,67.89,0,0,0-8.52,12s.38-12-2-18.68a24.64,24.64,0,0,0-6.22,13.41s-24.43-43.1,46.45-49.33c0,0-.06,3.12-1.07,12.34,3.55-1.73,17.19-6.55,18.79-7.07.67,6,.51,12.53-1,17.24l9.58-3.83S233.51,50.56,235.13,57Z"/><ellipse class="e" cx="92.26" cy="145.73" rx="32.87" ry="26.71" transform="translate(-70.7 89.22) rotate(-38.54)"/><ellipse class="e" cx="156.17" cy="145.73" rx="26.71" ry="32.87" transform="translate(-55.12 177.09) rotate(-51.46)"/><path class="f" d="M97.27,116.5a45.9,45.9,0,0,0-9.76,4.12A43.72,43.72,0,0,0,79,126.79a35.84,35.84,0,0,0-6.48,8.13,27.82,27.82,0,0,0-3.19,9.76,28.63,28.63,0,0,0-.24,5.15,25.37,25.37,0,0,0,.7,5.07c.8,3.29,2.32,6.49,4.94,8.52a22.29,22.29,0,0,0,9.37,4.06,25.51,25.51,0,0,0,10.37-.09,26,26,0,0,0,9.49-4.26c.71-.5,1.4-1,2.06-1.6l1-.87c.34-.32.69-.6,1-.89,1.39-1.13,2.81-2.19,4.16-3.32.33-.28.66-.56,1-.85s.57-.63.85-.95a23.73,23.73,0,0,0,1.55-2.07,18,18,0,0,0,2.16-4.64,16.35,16.35,0,0,0-.27-10,21.57,21.57,0,0,0-5.48-8.48,19,19,0,0,0-8.65-5,22.15,22.15,0,0,0-10,.4,31.66,31.66,0,0,0-9.6,4.12c-5.77,3.91-9.15,10.8-9.48,17.61a17,17,0,0,0,2.1,9.63A8.51,8.51,0,0,0,77.8,158a7.44,7.44,0,0,0,1.92,1.16,14.66,14.66,0,0,0,4.7,1.07,23.25,23.25,0,0,0,9.78-1.49,26,26,0,0,0,8.45-5.25,19.28,19.28,0,0,0,5.46-8,12.35,12.35,0,0,0-.59-9.25,12.14,12.14,0,0,0-7.06-6.16,11.65,11.65,0,0,0-9.4,1,19.57,19.57,0,0,0-7,7.2A15.55,15.55,0,0,0,82.11,143a8.56,8.56,0,0,0,.27,4.84A9.67,9.67,0,0,0,90,153.56a10.77,10.77,0,0,0,4.9-.27,6.27,6.27,0,0,0,3.59-2.52,5.17,5.17,0,0,0,.73-1.94c0-.33.08-.75.1-1.16s0-.81,0-1.21a5.63,5.63,0,0,0-1.32-4,2.81,2.81,0,0,0-1.77-.67,4.08,4.08,0,0,0-3.67,2.24,4.08,4.08,0,0,0-.29,2.49,3.88,3.88,0,0,1-.48-2.74,4.66,4.66,0,0,1,1.5-2.56,5.26,5.26,0,0,1,2.82-1.3,4.58,4.58,0,0,1,3.24.79,5.73,5.73,0,0,1,2,2.64,10.44,10.44,0,0,1,.62,3,11.71,11.71,0,0,1,0,1.45,13.54,13.54,0,0,1-.12,1.49,7.14,7.14,0,0,1-1.24,3,7.39,7.39,0,0,1-2.39,2.07,9.73,9.73,0,0,1-2.84,1,14,14,0,0,1-5.67-.24,17.67,17.67,0,0,1-2.66-.89,14.39,14.39,0,0,1-2.45-1.38A9.81,9.81,0,0,1,81,148.33a10.29,10.29,0,0,1-.43-5.65,17.41,17.41,0,0,1,2-5.2A22.07,22.07,0,0,1,90,129.35a13.87,13.87,0,0,1,11.13-1.6A14.76,14.76,0,0,1,110,135a15,15,0,0,1,1.07,11.46,21.52,21.52,0,0,1-6.23,9.5,26.5,26.5,0,0,1-20.72,7.31,17.15,17.15,0,0,1-5.57-1.57,10.06,10.06,0,0,1-2.52-1.74,10.68,10.68,0,0,1-1.78-2.44,18.94,18.94,0,0,1-1.86-11,26.8,26.8,0,0,1,3.39-10.38,23.2,23.2,0,0,1,7.38-7.94c1.55-1,3.13-1.77,4.72-2.62a40.91,40.91,0,0,1,4.93-2.29,19.31,19.31,0,0,1,5.4-1.31,17,17,0,0,1,5.63.44,21,21,0,0,1,9.57,5.62,22.64,22.64,0,0,1,5.72,9.41,18,18,0,0,1,0,11,20.09,20.09,0,0,1-6.18,9c-1.4,1.13-2.83,2.18-4.22,3.27-.34.28-.68.55-1,.83l-1,.88c-.7.58-1.42,1.13-2.16,1.64a28.86,28.86,0,0,1-9.86,4.38,28.44,28.44,0,0,1-10.8.42,23.6,23.6,0,0,1-10.17-4A13.29,13.29,0,0,1,70,160.55a20.23,20.23,0,0,1-2.06-5.18,29.34,29.34,0,0,1,3.21-21.26,34.48,34.48,0,0,1,7.06-8.24A42.78,42.78,0,0,1,97.27,116.5Z"/><path class="f" d="M154,116.5a42.83,42.83,0,0,1,19.1,9.37,34.44,34.44,0,0,1,7,8.24,29.34,29.34,0,0,1,3.21,21.26,20.2,20.2,0,0,1-2.05,5.18,13.44,13.44,0,0,1-3.76,4.22,23.56,23.56,0,0,1-10.16,4,28.62,28.62,0,0,1-20.66-4.8c-.75-.51-1.46-1.06-2.16-1.64l-1-.88c-.31-.28-.66-.55-1-.83-1.38-1.09-2.82-2.14-4.22-3.27a20.09,20.09,0,0,1-6.18-9,18,18,0,0,1,0-11,22.85,22.85,0,0,1,5.72-9.41,21,21,0,0,1,9.58-5.62,17,17,0,0,1,5.63-.44,19.33,19.33,0,0,1,5.39,1.31,40.91,40.91,0,0,1,4.93,2.29c1.59.85,3.17,1.64,4.72,2.62a23.2,23.2,0,0,1,7.38,7.94,26.64,26.64,0,0,1,3.39,10.38,19,19,0,0,1-1.85,11,11.32,11.32,0,0,1-1.78,2.44,10.29,10.29,0,0,1-2.53,1.74,17.08,17.08,0,0,1-5.57,1.57,26.51,26.51,0,0,1-20.72-7.31,21.52,21.52,0,0,1-6.23-9.5A15,15,0,0,1,141.2,135a14.74,14.74,0,0,1,8.84-7.2,13.87,13.87,0,0,1,11.13,1.6,22,22,0,0,1,7.45,8.13,17.15,17.15,0,0,1,2,5.2,10.29,10.29,0,0,1-.43,5.65,9.86,9.86,0,0,1-3.52,4.43,14.78,14.78,0,0,1-2.45,1.38,18.06,18.06,0,0,1-2.66.89,14.07,14.07,0,0,1-5.68.24,9.83,9.83,0,0,1-2.84-1,7.49,7.49,0,0,1-2.39-2.07,7,7,0,0,1-1.23-3,13.66,13.66,0,0,1-.13-1.49c0-.47,0-1,0-1.45a10.46,10.46,0,0,1,.63-3,5.66,5.66,0,0,1,2-2.64,4.56,4.56,0,0,1,3.23-.79,5.23,5.23,0,0,1,2.82,1.3,4.73,4.73,0,0,1,1.51,2.56,4,4,0,0,1-.48,2.74,4.08,4.08,0,0,0-.29-2.49,4,4,0,0,0-1.59-1.68,3.91,3.91,0,0,0-2.09-.56,2.76,2.76,0,0,0-1.76.67,5.68,5.68,0,0,0-1.33,4c0,.4,0,.8,0,1.21s.05.83.11,1.16a5,5,0,0,0,.72,1.94,6.3,6.3,0,0,0,3.59,2.52,10.77,10.77,0,0,0,4.9.27c3.31-.53,6.46-2.67,7.59-5.74a8.56,8.56,0,0,0,.27-4.84,15.79,15.79,0,0,0-1.92-4.67,19.67,19.67,0,0,0-7-7.2,11.65,11.65,0,0,0-9.4-1,12.14,12.14,0,0,0-7.06,6.16,12.4,12.4,0,0,0-.59,9.25,19.28,19.28,0,0,0,5.46,8,26.11,26.11,0,0,0,8.46,5.25,23.18,23.18,0,0,0,9.77,1.49,14.72,14.72,0,0,0,4.71-1.07,7.79,7.79,0,0,0,1.92-1.16,8.85,8.85,0,0,0,1.43-1.79,17,17,0,0,0,2.1-9.63c-.34-6.81-3.72-13.7-9.49-17.61a31.66,31.66,0,0,0-9.6-4.12,22.15,22.15,0,0,0-10-.4,19,19,0,0,0-8.65,5,21.55,21.55,0,0,0-5.47,8.48,16.42,16.42,0,0,0-.28,10,18,18,0,0,0,2.16,4.64,23.73,23.73,0,0,0,1.55,2.07c.29.32.57.68.86.95s.63.57,1,.85c1.35,1.13,2.77,2.19,4.17,3.32.34.29.69.57,1,.89l1,.87c.67.56,1.35,1.1,2.06,1.6a26.05,26.05,0,0,0,9.5,4.26,25.47,25.47,0,0,0,10.36.09,22.24,22.24,0,0,0,9.37-4.06c2.62-2,4.14-5.23,4.94-8.52a24.67,24.67,0,0,0,.7-5.07,28.62,28.62,0,0,0-.23-5.15,27.83,27.83,0,0,0-3.2-9.76,36.07,36.07,0,0,0-6.47-8.13,44.33,44.33,0,0,0-8.51-6.17A46.33,46.33,0,0,0,154,116.5Z"/><path class="d" d="M140.64,211.53s-7.35,7.79-16.43,7c-9.07.75-16.42-7-16.42-7-19.94-18.88-7.46-58,4-57.22,8.42.56,11.45,18.18,12.47,27.39,1-9.21,4-26.83,12.46-27.39C148.1,153.55,160.57,192.65,140.64,211.53Z"/><line class="d" x1="124.22" y1="181.7" x2="124.22" y2="218.57"/><line class="d" x1="130.38" y1="158.87" x2="143.73" y2="208.11"/><line class="d" x1="118.05" y1="158.87" x2="104.69" y2="208.11"/></svg>