<svg xmlns="http://www.w3.org/2000/svg" viewBox="0 0 698.93 220.12"><defs><style>.a{fill:#f9fcf8;stroke:#000;}.a,.b,.c{stroke-miterlimit:10;}.b{fill:#ffff78;}.b,.c{stroke:#4fc2a6;stroke-width:3px;}.c,.d{fill:#4fc2a6;}</style></defs><title>Studio-Kolani_Logo</title><path class="a" d="M124.54,204.86h0Z"/><path class="b" d="M172.85,82.22V184.35a15.13,15.13,0,0,1-7.1,12.82,23.75,23.75,0,0,1-6,2.67,131.57,131.57,0,0,1-34.85,5h-1.31a131.44,131.44,0,0,1-34.84-5,23.66,23.66,0,0,1-6-2.67,15.13,15.13,0,0,1-7.1-12.82V82.22Z"/><path class="c" d="M244.22,44.71c5.53,19.48,0,40.79-2.16,44a.08.08,0,0,1,0,0C235.82,103,225.25,106,225.25,106c2.25-.25,9.5,4,9.5,4-3,7.25-18.5,15.5-18.5,15.5a65.12,65.12,0,0,0,17.5-3.5c-6.5,25.5-30.5,27.5-30.5,27.5,22.37,2.84,35.33,9.41,35.33,9.41-18.74,20.88-33.83,18.34-33.83,18.34C210.5,185.28,227,198,227,198c-35.46,20.71-60-1-60-1,8.23-5,6.75-12.59,6.75-12.59V119l-.13,0c-26.1-8.29-24.17-25-23.88-26.8-2,10.63-5.22,14.81-5.22,14.81-.56-4.92.85-13.18,1.59-17,.14-.71.25-1.26.32-1.6-.13.54-.27,1.08-.42,1.6-4,15.21-11.57,24.12-20.24,29.12-.26.15-.9.43-1.16.58l-1.16-.65c-8.67-5-16.22-13.91-20.24-29.12-.15-.52-.29-1.06-.42-1.6.07.34.18.89.32,1.6.74,3.79,2.15,12.05,1.59,17,0,0-3.22-4.18-5.22-14.81.29,1.82,2.22,18.51-23.88,26.8l-.13,0v65.38S74,191.9,82.2,196.93c0,0-24.56,21.69-60,1,0,0,16.5-12.7,22.25-20.7,0,0-15.09,2.55-33.83-18.34,0,0,13-6.56,35.33-9.41,0,0-24-2-30.5-27.5a65.12,65.12,0,0,0,17.5,3.5s-15.5-8.25-18.5-15.5c0,0,7.25-4.25,9.5-4,0,0-10.57-3.08-16.79-17.27a.08.08,0,0,1,0,0C5,85.43-.57,64.12,5,44.64c.68-6.09.65-13.68-2.38-19.15,0,0,6.24.14,10.81,2.56h0c-.18-.35-4.05-8.22-2.64-20.19,0,0,5.16,1.8,18.24,8.46,0,0-3.48-9.54-2.4-13.86,0,0,13.31,9.07,20.84,9.12,2.71-.3,5.57-.48,8.6-.52C91.8,10.55,103,31.4,105.47,51.52c5.75-5.07,13.56-9.35,22.77-7.91a.22.22,0,0,1,0,.08c6.07,1,11.31,4.23,15.48,7.9,2.49-20.12,13.67-41,49.43-40.47,3,0,5.89.22,8.6.52,7.53-.05,20.84-9.12,20.84-9.12,1.08,4.32-2.4,13.86-2.4,13.86,13.08-6.66,18.24-8.46,18.24-8.46,1.41,12-2.46,19.84-2.64,20.19h0c4.57-2.42,10.81-2.56,10.81-2.56C243.57,31,243.54,38.62,244.22,44.71Z"/><path class="b" d="M14.72,57S6.58,100.2,53.52,95.41c0,0-15.17-5-16-8.94a216.35,216.35,0,0,1,24.11,0s-4.31-8.3-3.35-14c0,0,10,2.87,12.93,7.18,0,0,0-16.28,1.91-21.55a67.89,67.89,0,0,1,8.52,12s-.37-12,2-18.68a24.69,24.69,0,0,1,6.23,13.41s24.42-43.1-46.46-49.33c0,0,.06,3.12,1.08,12.34C41,26,27.34,21.21,25.74,20.69c-.67,6-.5,12.53,1,17.24L17.12,34.1S16.34,50.56,14.72,57Z"/><path class="b" d="M235.13,57s8.14,43.17-38.79,38.38c0,0,15.16-5,16-8.94a216.35,216.35,0,0,0-24.11,0s4.31-8.3,3.36-14c0,0-10.06,2.87-12.94,7.18,0,0,0-16.28-1.91-21.55a67.89,67.89,0,0,0-8.52,12s.38-12-2-18.68a24.64,24.64,0,0,0-6.22,13.41s-24.43-43.1,46.45-49.33c0,0-.06,3.12-1.07,12.34,3.55-1.73,17.19-6.55,18.79-7.07.67,6,.51,12.53-1,17.24l9.58-3.83S233.51,50.56,235.13,57Z"/><ellipse class="b" cx="92.26" cy="145.73" rx="32.87" ry="26.71" transform="translate(-70.7 89.22) rotate(-38.54)"/><ellipse class="b" cx="156.17" cy="145.73" rx="26.71" ry="32.87" transform="translate(-55.12 177.09) rotate(-51.46)"/><path class="d" d="M97.27,116.5a45.9,45.9,0,0,0-9.76,4.12A43.72,43.72,0,0,0,79,126.79a35.84,35.84,0,0,0-6.48,8.13,27.82,27.82,0,0,0-3.19,9.76,28.63,28.63,0,0,0-.24,5.15,25.37,25.37,0,0,0,.7,5.07c.8,3.29,2.32,6.49,4.94,8.52a22.29,22.29,0,0,0,9.37,4.06,25.51,25.51,0,0,0,10.37-.09,26,26,0,0,0,9.49-4.26c.71-.5,1.4-1,2.06-1.6l1-.87c.34-.32.69-.6,1-.89,1.39-1.13,2.81-2.19,4.16-3.32.33-.28.66-.56,1-.85s.57-.63.85-.95a23.73,23.73,0,0,0,1.55-2.07,18,18,0,0,0,2.16-4.64,16.35,16.35,0,0,0-.27-10,21.57,21.57,0,0,0-5.48-8.48,19,19,0,0,0-8.65-5,22.15,22.15,0,0,0-10,.4,31.66,31.66,0,0,0-9.6,4.12c-5.77,3.91-9.15,10.8-9.48,17.61a17,17,0,0,0,2.1,9.63A8.51,8.51,0,0,0,77.8,158a7.44,7.44,0,0,0,1.92,1.16,14.66,14.66,0,0,0,4.7,1.07,23.25,23.25,0,0,0,9.78-1.49,26,26,0,0,0,8.45-5.25,19.28,19.28,0,0,0,5.46-8,12.35,12.35,0,0,0-.59-9.25,12.14,12.14,0,0,0-7.06-6.16,11.65,11.65,0,0,0-9.4,1,19.57,19.57,0,0,0-7,7.2A15.55,15.55,0,0,0,82.11,143a8.56,8.56,0,0,0,.27,4.84A9.67,9.67,0,0,0,90,153.56a10.77,10.77,0,0,0,4.9-.27,6.27,6.27,0,0,0,3.59-2.52,5.17,5.17,0,0,0,.73-1.94c0-.33.08-.75.1-1.16s0-.81,0-1.21a5.63,5.63,0,0,0-1.32-4,2.81,2.81,0,0,0-1.77-.67,4.08,4.08,0,0,0-3.67,2.24,4.08,4.08,0,0,0-.29,2.49,3.88,3.88,0,0,1-.48-2.74,4.66,4.66,0,0,1,1.5-2.56,5.26,5.26,0,0,1,2.82-1.3,4.58,4.58,0,0,1,3.24.79,5.73,5.73,0,0,1,2,2.64,10.44,10.44,0,0,1,.62,3,11.71,11.71,0,0,1,0,1.45,13.54,13.54,0,0,1-.12,1.49,7.14,7.14,0,0,1-1.24,3,7.39,7.39,0,0,1-2.39,2.07,9.73,9.73,0,0,1-2.84,1,14,14,0,0,1-5.67-.24,17.67,17.67,0,0,1-2.66-.89,14.39,14.39,0,0,1-2.45-1.38A9.81,9.81,0,0,1,81,148.33a10.29,10.29,0,0,1-.43-5.65,17.41,17.41,0,0,1,2-5.2A22.07,22.07,0,0,1,90,129.35a13.87,13.87,0,0,1,11.13-1.6A14.76,14.76,0,0,1,110,135a15,15,0,0,1,1.07,11.46,21.52,21.52,0,0,1-6.23,9.5,26.47,26.47,0,0,1-20.72,7.31,17.15,17.15,0,0,1-5.57-1.57,10.06,10.06,0,0,1-2.52-1.74,10.68,10.68,0,0,1-1.78-2.44,18.94,18.94,0,0,1-1.86-11,26.8,26.8,0,0,1,3.39-10.38,23.2,23.2,0,0,1,7.38-7.94c1.55-1,3.13-1.77,4.72-2.62a40.91,40.91,0,0,1,4.93-2.29,19.31,19.31,0,0,1,5.4-1.31,17,17,0,0,1,5.63.44,21,21,0,0,1,9.57,5.62,22.64,22.64,0,0,1,5.72,9.41,18,18,0,0,1,0,11,20,20,0,0,1-6.18,9c-1.4,1.13-2.83,2.18-4.22,3.27-.34.28-.68.55-1,.83l-1,.88c-.7.58-1.42,1.13-2.16,1.64a28.86,28.86,0,0,1-9.86,4.38,28.44,28.44,0,0,1-10.8.42,23.6,23.6,0,0,1-10.17-4A13.29,13.29,0,0,1,70,160.55a20.23,20.23,0,0,1-2.06-5.18,29.34,29.34,0,0,1,3.21-21.26,34.48,34.48,0,0,1,7.06-8.24A42.78,42.78,0,0,1,97.27,116.5Z"/><path class="d" d="M154,116.5a42.83,42.83,0,0,1,19.1,9.37,34.44,34.44,0,0,1,7,8.24,29.34,29.34,0,0,1,3.21,21.26,20.2,20.2,0,0,1-2.05,5.18,13.44,13.44,0,0,1-3.76,4.22,23.56,23.56,0,0,1-10.16,4,28.62,28.62,0,0,1-20.66-4.8c-.75-.51-1.46-1.06-2.16-1.64l-1-.88c-.31-.28-.66-.55-1-.83-1.38-1.09-2.82-2.14-4.22-3.27a20.09,20.09,0,0,1-6.18-9,18,18,0,0,1,0-11,22.85,22.85,0,0,1,5.72-9.41,21,21,0,0,1,9.58-5.62,17,17,0,0,1,5.63-.44,19.33,19.33,0,0,1,5.39,1.31,40.91,40.91,0,0,1,4.93,2.29c1.59.85,3.17,1.64,4.72,2.62a23.2,23.2,0,0,1,7.38,7.94,26.64,26.64,0,0,1,3.39,10.38,19,19,0,0,1-1.85,11,11.32,11.32,0,0,1-1.78,2.44,10.29,10.29,0,0,1-2.53,1.74,17.08,17.08,0,0,1-5.57,1.57,26.48,26.48,0,0,1-20.72-7.31,21.52,21.52,0,0,1-6.23-9.5A15,15,0,0,1,141.2,135a14.74,14.74,0,0,1,8.84-7.2,13.87,13.87,0,0,1,11.13,1.6,22,22,0,0,1,7.45,8.13,17.15,17.15,0,0,1,2,5.2,10.29,10.29,0,0,1-.43,5.65,9.86,9.86,0,0,1-3.52,4.43,14.78,14.78,0,0,1-2.45,1.38,18.06,18.06,0,0,1-2.66.89,14.07,14.07,0,0,1-5.68.24,9.83,9.83,0,0,1-2.84-1,7.49,7.49,0,0,1-2.39-2.07,7,7,0,0,1-1.23-3,13.66,13.66,0,0,1-.13-1.49c0-.47,0-1,0-1.45a10.46,10.46,0,0,1,.63-3,5.66,5.66,0,0,1,2-2.64,4.56,4.56,0,0,1,3.23-.79,5.23,5.23,0,0,1,2.82,1.3,4.73,4.73,0,0,1,1.51,2.56,4,4,0,0,1-.48,2.74,4.08,4.08,0,0,0-.29-2.49,4,4,0,0,0-1.59-1.68,3.91,3.91,0,0,0-2.09-.56,2.76,2.76,0,0,0-1.76.67,5.68,5.68,0,0,0-1.33,4c0,.4,0,.8,0,1.21s.05.83.11,1.16a5,5,0,0,0,.72,1.94,6.3,6.3,0,0,0,3.59,2.52,10.77,10.77,0,0,0,4.9.27c3.31-.53,6.46-2.67,7.59-5.74a8.56,8.56,0,0,0,.27-4.84,15.79,15.79,0,0,0-1.92-4.67,19.67,19.67,0,0,0-7-7.2,11.65,11.65,0,0,0-9.4-1,12.14,12.14,0,0,0-7.06,6.16,12.4,12.4,0,0,0-.59,9.25,19.28,19.28,0,0,0,5.46,8,26.11,26.11,0,0,0,8.46,5.25,23.18,23.18,0,0,0,9.77,1.49,14.72,14.72,0,0,0,4.71-1.07,7.79,7.79,0,0,0,1.92-1.16,8.85,8.85,0,0,0,1.43-1.79,17,17,0,0,0,2.1-9.63c-.34-6.81-3.72-13.7-9.49-17.61a31.66,31.66,0,0,0-9.6-4.12,22.15,22.15,0,0,0-10-.4,19,19,0,0,0-8.65,5,21.55,21.55,0,0,0-5.47,8.48,16.42,16.42,0,0,0-.28,10,18,18,0,0,0,2.16,4.64,23.73,23.73,0,0,0,1.55,2.07c.29.32.57.68.86.95s.63.57,1,.85c1.35,1.13,2.77,2.19,4.17,3.32.34.29.69.57,1,.89l1,.87c.67.56,1.35,1.1,2.06,1.6a26.05,26.05,0,0,0,9.5,4.26,25.47,25.47,0,0,0,10.36.09,22.24,22.24,0,0,0,9.37-4.06c2.62-2,4.14-5.23,4.94-8.52a24.67,24.67,0,0,0,.7-5.07,28.62,28.62,0,0,0-.23-5.15,27.83,27.83,0,0,0-3.2-9.76,36.07,36.07,0,0,0-6.47-8.13,44.33,44.33,0,0,0-8.51-6.17A46.33,46.33,0,0,0,154,116.5Z"/><path class="b" d="M140.64,211.53s-7.35,7.79-16.43,7c-9.07.75-16.42-7-16.42-7-19.94-18.88-7.46-58,4-57.22,8.42.56,11.45,18.18,12.47,27.39,1-9.21,4-26.83,12.46-27.39C148.1,153.55,160.57,192.65,140.64,211.53Z"/><line class="b" x1="124.22" y1="181.7" x2="124.22" y2="218.57"/><line class="b" x1="130.38" y1="158.87" x2="143.73" y2="208.11"/><line class="b" x1="118.05" y1="158.87" x2="104.69" y2="208.11"/><path class="d" d="M270.07,194c0-13.84.69-27.68.69-41.52,0-19.21-1.55-38.41-1.55-57.79,0-.86.17-3.46.17-3.63l.34-.69a16.91,16.91,0,0,1,3.81-.52c7.44-.35,12.46-.35,19.55-.35h5l.34.35c0,.17.87,6.75,1,9.34.35,4.5,1.73,25.43,1.9,29.93l.7,3.29.34.34a.59.59,0,0,0,.35.18c.69,0,2.25-2.6,2.77-3.12,5.53-8.13,11.93-20.41,11.93-30.45,0-2.59-.52-5.19-.52-7.61v-.69l.87-.52h30.45c1,0,1.21,1.21,1.21,1.9,0,17-13,41.53-24.39,52.94v.7c23.7,9.51,27.33,32.69,30.27,52.42.17.86.17,1.73.35,2.59.34,2.6-3.12,4.84-5.19,5.71-3.64,0-19.73.35-23.19.52H322a1.29,1.29,0,0,1-.86-1.21c-3.12-14-3.81-38.24-15.23-48.1a10.61,10.61,0,0,0-1.56-.69l-.34.52v11.76c0,9.69.34,20.42-1.56,30.28-2.42,5.19-8.82,5.54-14.18,5.88-.35,0-7.27.35-10,.35h-1c-3.63,0-6.4-.87-7.09-4.85Z"/><path class="d" d="M379.23,92.28c29.76-3.8,37.2,7.61,42.22,34.6.34,1.39,1,6.58,1,7.1,0,.34.18,4.67.18,6.4,0,18.33,0,33.56-7.79,50.51-1,2.25-1.73,4.67-3.29,6.92a13,13,0,0,1-2.24,2.08c-6.75,5.88-14,8-23,8-15.75,0-22.84-9.17-27.17-23.53-.17-.87-2.07-7.61-2.59-9.52a10.52,10.52,0,0,1-.35-2.07L354,149.37V147.3C354,130,357.43,95.05,379.23,92.28ZM390,178.44c8.48-.35,7.61-24.22,7.44-32.35v-1.73c0-4.85-.18-25.09-8.13-25.09-5.71,0-7.44,22.84-7.44,26.47C381,174.63,383.56,178.61,390,178.44Z"/><path class="d" d="M434.24,117.19c0-2.59-1.21-19.55-1.21-22.14,0-.17.18-1.56.87-1.9.69,0,5.36-.35,6.4-.35h27a2.53,2.53,0,0,1,1.21,2.25v6.23c0,9.34.34,23,0,32.35-.17,2.25-.35,14.36-.35,17.13,0,.52-.17,9.34-.17,12.63,0,1.73.17,10.55.17,12.45a8,8,0,0,0,2.77.35c3.11,0,6.05-.35,9.17-.35,3.63,0,8.82.18,8.82,4.67,0,6.92-.34,13.32-.17,20.42-1.21,4.15-6.4,6-10.38,6.23-11.59-.18-23,.17-34.43.17h-3.29c-1.21-.17-3.63-.69-3.8-2.25L434.59,161C434.93,146.43,434.24,131.9,434.24,117.19Z"/><path class="d" d="M495.83,153.7v-2.25c.52-9.34,1.38-18.86,2.59-28.37.18-.7.7-3.29.7-3.64.34-.69,2.94-8.13,3.8-10.55,0-.17.35-.52.35-.69,8.65-13.67,22.14-22.84,40.48-17.82.17,0,.35.17.52.17A25.92,25.92,0,0,1,551,93.49c5.36,4.15,8.3,10.56,10.9,16.78,4.84,12.46,3.28,27.17,3.63,40.14.17.87.35,6.57.35,7.09v22.67c0,2.59-.52,15.22-.7,18a8.21,8.21,0,0,1-8,7.44c-1,0,2.94-.35-9.69-1.21a13.31,13.31,0,0,1-2.08-.87c-2.94-1.38-3.29-1.9-4.15-4.84,0-1.21-.35-6.4-.52-7.44,0-.52-.17-2.6-.17-3.11a.83.83,0,0,0-.87-.52c-.17,0-.69.17-.86.17-.52,0-14.36,0-14.88.17-.52,0-.35.69-.35.87v.86c.18,2.25.52,9.17.69,9.69,0,.35.87,2.77.87,2.94v1c0,1-.17,1.38-1.21,1.73-2.94,0-9.69,1.21-12.8,1.21H498.94c-1.55-.52-1.73-1.9-1.9-3.29C497.21,186.4,495.83,170.13,495.83,153.7Zm29.41,9s5,.35,5.19.35h7.78c.18-1.21.52-7.61.52-9v-.86c0-3.12-.69-6.92-.69-10-.17-5.19.17-10.2-.86-15.39-.52-11.08-3.46-14.88-6.23-14.19s-5.54,5.71-6.23,13.15c-.35,1.38-1,5-1,5.36a80.08,80.08,0,0,0-.69,11.25c0,6.23,0,13,1,19A1.47,1.47,0,0,0,525.24,162.69Z"/><path class="d" d="M577.83,149.55c-.17-.52,0-6.41,0-7.27,0-.17-.35-1.9-.35-2.25-.86-12.46-1.21-25.09-1.21-37.71v-2.25c1.56-2.77,5-2.95,8-2.95,6.4,0,12.11.52,18.69.35,3.28,1.39,3.46,1.9,4.32,4.67,0,.18.17.35.17.52.35.87,2.77,7.09,3.46,8.82,0,.18.18.52.18.7l19.89,47.92c0-8.13-1.21-16.26-1.38-24.74,0-.52.52-10,.34-10.73,0-.69-.34-5.19-.34-5.88,0-1.9.34-4.67-.17-6.75V99.2c0-2.77,4-3.29,5.88-3.46A81.82,81.82,0,0,1,649.8,94c3.29,0,5,.17,7.27,2.6,0,.17.34.69-.87.69l1.56,72.14c0,1.9.17,10.73.17,12.46-.17,2.59-.69,15-.86,17.64-1,5-4.85,5.71-9.52,6.23-.17,0-3.29.52-6.92.69h-.35c-2.24-.17-8.13-.34-8.3-.34-6.23-.35-12.46-19.72-25.26-52.94-.86,5.53,2.25,34.08,2.08,39.1,0,.69.17,6.57,0,7.26-.35,10.21-11.77,10-19.38,10H588c-3.64,0-8.13-.87-9.17-4.85C579.21,186.05,578.35,168.23,577.83,149.55Z"/><path class="d" d="M669,181.21c0-6.41.35-12.81.35-19v-1.73c0-2.76-.69-24.22-.87-27,0-2.43.52-6.75-.17-9.69V95.05c0-.52,2.08-1.73,2.59-1.73h27c1,0,1,1,1,1.56,0,14.53-1,29.23-1,43.77,0,10.38.52,20.58.52,30.79,0,9.34,0,15.92-.52,25.26-1.73,8-13.84,7.78-20.58,7.78h-1.56c-8.31,0-5.71-3.63-6.75-10.2Z"/><path class="d" d="M270.36,59.21l.16-.16,11.42.4c.16,0,.48-.08.48.09v.64c.09,2.35-1.37,7.7,4.3,6.89,1.54-.16,2.18-2.51,2.18-3.73,0-3.8-4.45-6-7.29-7.94l-.4-.4c-5.51-3.81-10.85-7.61-10.85-14.66a1.81,1.81,0,0,1,.08-.32c.4-.41.32-.49,0-.9a11.13,11.13,0,0,1-.25-1.62,2.05,2.05,0,0,0-.16-.4v-.32c0-9.32,9.48-13.29,18.31-13.37,15.63-.08,15,14.5,13.85,22.19,0,.17-1.06,0-1.3,0h-1.21c-1.62-.08-6.81,0-8.43-.16-.73,0-.73-.56-.81-1V40c-.08-1.79-1.13-4.46-3.64-4.46-6.08,0-1.3,8.75,1.94,10.94.65.4,1.3.81,1.86,1.21,7.62,4.94,15.88,10.37,8.83,22.76A15,15,0,0,1,296,75c-3,2.52-6.72,3.24-10.77,3.24-10.45,0-14.09-4.37-14.9-18v-1Z"/><path class="d" d="M316,50.63c-.33-1.54-.65-12.56-1.54-12.88a3.05,3.05,0,0,0-1-.16c-.65-.09-5.11.16-5.92.16-.48-.16-1.13-.41-1.13-1.14.41-2.59-.32-6.64-.24-9.63v-.41a1.35,1.35,0,0,1-.16-.73c0-.65,1.7-1,2.34-1.05,4.38-.65,9.48-.89,28-.49a2.37,2.37,0,0,1,1.29,2A77.91,77.91,0,0,1,337,36.94c-1.54,1.7-5.43.89-7.7,1.29a2.37,2.37,0,0,0-.56.17c0,.24-.17,1.05-.17,1.29v.08c0,7.13.57,24.54,1.38,34.1a6.66,6.66,0,0,1-.73,2.35c-1.78,2.27-4.62,2.27-7.37,2.27h-.73c-2.59,0-4.78-.25-4.78-3.49V69.5Z"/><path class="d" d="M341.31,26.49c.24-1.54,3.08-1.13,4.05-1.13a17.51,17.51,0,0,1,2.27-.25h2.1c1.62,0,4.54-.4,5.35,1.62v1.7c0,2.76-.24,5.43-.24,8.18,0,4.38.32,8.67.24,13a4.38,4.38,0,0,1,.24.81c.08.25.16,2.35.25,2.59.16,1.71,1.13,3.73.89,5.51.16.57,1,3.08,1.13,3.65a6.4,6.4,0,0,0,1.78,2.1,5.93,5.93,0,0,0,1.54.33c1,0,1.22-.89,1.38-1.7a22.14,22.14,0,0,0,.56-2.43v-7c-.08-.57-.8-6.64-.89-21.38a33.62,33.62,0,0,1,.33-5.75,2.49,2.49,0,0,1,.56-.41h4.38c1.13,0,6.88.16,8.1.25a1.46,1.46,0,0,1,.48,1.13,83.24,83.24,0,0,1,.57,10.2c0-1.94,1.86,26.33-4.54,34.27-.08.08-.32.72-.4.81a.3.3,0,0,1-.16.24L368,76.06a1.65,1.65,0,0,1-.65.32,22.69,22.69,0,0,1-7.61,1.22c-7.29,0-11.26-1.7-14.82-7.86a13.83,13.83,0,0,1-.73-2.67,5.6,5.6,0,0,0-.25-.65,14.45,14.45,0,0,1-.81-3.89c-.24-2.67-.81-5.34-1-8-.16-3.64-.49-7.29-.81-10.93a54.8,54.8,0,0,1-.57-6.24A80.42,80.42,0,0,1,341.31,26.49Z"/><path class="d" d="M382.78,75.81c0-.24.16-2.59.16-2.83v-.16c0-4.38-.24-7.45-.16-11.83a3.27,3.27,0,0,1-.24-1.54c0-1.29.24-2.51.24-3.8,0-1.62-.32-3.16-.32-4.86a11.54,11.54,0,0,0-.25-2.92c-.08-1-.32-5-.32-6V36.05c-.08-2.68-.32-5.43-.32-8.18V26.25c0-1.14,2.35-.81,2.83-.89.16,0,1.62-.41,2.27-.57.08,0,.4-.08.49-.08,1.86-.16,3-.25,4.53-.25,8,0,17.33,2,21.38,9.4,2,3.81,2.76,8.91,2.76,13v1.78c-.16,1.14-.89,6.16-1.14,7.21-.4,1.46-1,3.48-1.21,4.94a8.41,8.41,0,0,1-.24,1.22c-.09.16-1.14,1.05-1.22,1.21-.89,1.05-.57,1.7-1,2.75a8.84,8.84,0,0,0-.81.81,4,4,0,0,1,0,1c0,.16-.73.73-.81.89a14.58,14.58,0,0,1-4,4.37c-4.37,3.89-12.07,5.35-17.9,5.35-1.05,0-4.7-.49-4.7-2.27Zm13.85-13c5-3.73,6-12.56,6-17.09V43.9c0-4.21-3.25-7.37-6.48-6.8-.17,3,.32,7.45.32,10.37C396.47,51.92,396.23,58.4,396.63,62.86Z"/><path class="d" d="M420.12,75.81V73.06c0-.73-.16-4.94-.16-5,0-.32-.08-2.67-.08-3,0-.16.08-1.7.08-1.94v-.16c0-.25-.08-1.87-.08-2.11,0-1,.08-5.91.08-7l.16-27.21c0-.16-.16-.81-.16-1v-.16c0-1.46,2.75-1.38,3.81-1.87h5c.08,0,1.7.41,2.35.49.48.16.81.57,1.29.73,1.14.16,1.14.32,1.14,1.38v.24q0,6-.49,11.66c.08,11.83.33,25.92-.32,37.58-1,1.3-3.73,2.43-5.27,2.59-2.35,0-3.64.25-5.67.25a1.86,1.86,0,0,1-1.86-1.7A6.09,6.09,0,0,1,420.12,75.81Z"/><path class="d" d="M439.8,68.77c-1.13-2.67-1.05-5.43-1.37-8.18V48a44.37,44.37,0,0,1,1.37-9.63c.08-.25,1.06-3.57,1.46-4.86,2.27-7.29,10.53-9.24,17.58-9.24l1.29.16h.08C472.53,26,478,45.77,469.45,70.06c-.57.9-1.06,1.87-1.7,2.76a18,18,0,0,1-13.45,5.34c-5,0-10-1.86-12.88-5.83C441.18,71.68,440.05,69.34,439.8,68.77Zm15.47-2h.33c.81,0,2-1.54,2.18-1.94,2-4.62,2.84-12.63,2.84-17.49v-.17c.08-1.21.49-10.28-2-10.36-.08-.25-.16-.25-.32-.25-1.7,0-4.45.57-5.59,6.08-.24,1.13-.48,4.45-.48,4.53v6.64C452,62.69,453.33,66.42,455.27,66.74Z"/></svg>