
<svg xmlns="http://www.w3.org/2000/svg" version="1.1" xmlns:xlink="http://www.w3.org/1999/xlink" preserveAspectRatio="none" x="0px" y="0px" width="450px" height="450px" viewBox="0 0 450 450">
<defs/>

<g id="LOGO">
<g transform="matrix( 1, 0, 0, 1, 225,369.1) ">
<g id="Layer_1">
<g transform="matrix( 1, 0, 0, 1, 0,0) ">
<g>
<g>
<path fill="#000000" stroke="none" d="
M 174.65 -278.8
L 174.55 -278.9
Q 166.4 -287.6 154.6 -288.1 146.05 -288.5 139.25 -284.6 139.1 -284.55 139 -284.45 136.65 -283.15 134.65 -281.4 134.35 -281.2 134.1 -280.95 134 -280.9 133.95 -280.8 131.55 -278.95 129.2 -276.95 129 -276.9 129 -276.75
L 112.2 -263.25
Q 109.65 -261.3 107.25 -259.25 107.1 -259.2 107.05 -259.15
L 107 -259.1
Q 106.4 -258.65 105.7 -258.05 103.1 -256.05 101.2 -253.45 99.9 -251.75 99.1 -249.9 98.6 -248.95 98.3 -247.95 98.25 -247.8509765625 98.25 -247.75
L 58.55 -219.8
Q 58.5 -219.8 58.45 -219.75 56.65 -221.1 54.95 -222.25 54.2 -222.75 53.35 -222.85
L 53.3 -222.85 -24.3 -234.4
Q -24.35 -234.45 -24.35 -234.5
L -24.4 -234.55
Q -25.5 -237.95 -26.9 -241.15 -28.25 -244.2 -31.05 -248.95
L -32.5 -249.95
Q -33.3 -250.45 -34.1 -250.95 -36.35 -252.4 -38.65 -253.65 -38.7 -253.75 -38.75 -253.75 -39.85 -254.5 -41.1 -254.95 -41.35 -255.05 -41.6 -255.1
L -41.6 -255.05 -41.65 -255.05 -41.8 -255.15 -40.95 -257.65 -37.15 -259.15
Q -36.85 -260.45 -36.55 -261.75 -35.9 -265.05 -35.65 -268.55
L -36.75 -270.15
Q -36.25 -273.05 -36.2 -276.05 -37.25 -276.75 -38.8 -277.45 -39.8 -280.3 -42.6 -282.85 -47.05 -286.9 -53.45 -286.9 -59.75 -286.9 -64.15 -282.85 -68.05 -279.4 -68.5 -274.55 -68.55 -274.55 -68.5 -274.5 -68.7 -274.45 -68.8 -274.4 -70.6 -273.75 -71.6 -272.3
L -71.6 -272.25
Q -72.05 -268.4 -71.95 -266.25 -71.9 -263.85 -71.65 -262.4
L -71.35 -261.8
Q -71.3 -261.75 -71.25 -261.75 -70 -260.35 -68.2 -259.95 -68.15 -258.9 -67.6 -258
L -67.7 -258
Q -70.5 -257.2 -73.3 -256.45 -75.35 -255.9 -77.35 -255.35 -79.35 -254.75 -81.1 -253.8
L -81.2 -253.75 -84.6 -245
Q -85.4 -242.3 -86.2 -239.55 -86.5 -238.65 -86.7 -237.7 -87.2 -233.5 -88.25 -227.2 -88.35 -224.55 -87.7 -222.05 -86.75 -218.25 -84.05 -214.95 -84.15 -214.95 -84.2 -214.85
L -84.25 -214.9 -84.25 -214.85
Q -89.05 -211.75 -93.85 -208.4 -96.45 -206.65 -99 -204.8 -105.2 -200.45 -111.35 -195.75 -114.15 -193.6 -117 -191.4 -119.05 -189.8 -121.1 -188.15 -122.35 -187.2 -122.55 -185.55 -123.7 -176.6 -124.45 -167.05 -125.05 -160.25 -125.4 -153.1 -125.7 -146.5 -125.9 -139.35 -126.05 -134.3 -126.1 -128.95 -142.55 -114.45 -155.25 -101.75 -163.8 -93.3 -170.65 -85.6 -172.7 -77.45 -172.25 -67.7 -173.85 -65.7 -175.35 -63.4 -175.45 -63.35 -175.5 -63.25 -182.45 -52.85 -182.45 -37.75 -182.45 -22.75 -175.5 -11.9 -175.5 -11.85 -175.5 -11.8 -169.05 -1.65 -160.15 -0.2
L -157.6 0
Q -157.55 0 -157.5 0
L -157.45 0
Q -157.3 0 -157.05 0 -157 0 -156.9 0 -156.85 0 -156.75 0 -155.25 0 -152.3 -0.05
L 108.85 -0.05
Q 109.3 -0.05 109.75 -0.25 113.15 -2.15 116.4 -4.55
L 116.4 -4.6
Q 132.4 -16.55 141.75 -34.2 147.55 -45.15 151.1 -56.9 153.05 -63.5 154.35 -70.3 157.25 -85.95 157.05 -101.75 157 -104.8 156.85 -107.85
L 167.55 -115.5
Q 169 -116.55 169.2 -118.2
L 169.2 -118.25
Q 169.2 -118.85 169.15 -119.3
L 169.15 -119.4
Q 168.7 -121.2 167.95 -122.85
L 167.9 -122.85
Q 167.35 -124.1 166.85 -125.3 166.35 -126.45 165.9 -127.55
L 165.85 -127.6
Q 165.05 -129.35 164.2 -130.95 163.3 -132.55 162.45 -134.1 161.75 -135.2 161.1 -136.25 157.95 -141.25 154.35 -145 152.45 -146.95 150.5 -148.5 145.05 -152.95 138.75 -154.9
L 138.65 -154.95
Q 138.45 -155 138.3 -155 128.1 -157.35 113.35 -158.7 105.45 -159.4 96.4 -159.7
L 95.95 -167.4
Q 95.95 -167.45 95.95 -167.55 95.85 -168.15 95.65 -168.7 95.5 -169.05 95.35 -169.4 95.1 -169.7 94.9 -169.95
L 94.85 -169.95 94.8 -170
Q 93.8 -171.1 92.35 -171.25
L 92.3 -171.25 92.35 -171.2 83.6 -172.3
Q 83.35 -174.75 83 -177.1 82.2 -181.95 80.75 -186.75 78.9 -192.9 78.05 -194.85
L 78.1 -194.85
Q 80.6 -196.2 83.1 -197.45 91.15 -201.8 99.25 -206.1 108.5 -211.1 117.85 -216.05 117.9 -216 118.05 -216
L 118.1 -216
Q 119.7 -215.85 121.45 -215.9 125.55 -216.1 129.2 -217.5 129.25 -217.5 129.3 -217.55 129.55 -217.7 129.9 -217.8 129.95 -217.8 130 -217.85
L 130.05 -217.9 163.45 -232.2
Q 163.5 -232.2 163.6 -232.2 168.85 -234.1 173.4 -238.2 175.9 -240.55 177.7 -243.1
L 177.75 -243.15
Q 177.75 -243.2 177.8 -243.2 182.25 -249.8 182.5 -258.15 182.75 -267.3 178 -274.55 177.95 -274.65 177.9 -274.7 177.8 -274.9 177.7 -275 176.35 -277 174.7 -278.75 174.7 -278.8 174.65 -278.8
M 173.1 -271.45
Q 176.9 -265.6 176.7 -258.3 176.4 -248.9 169.5 -242.5 165.8 -239.15 161.5 -237.65
L 161.45 -237.65
Q 161.4 -237.65 161.4 -237.6 161.35 -237.6 161.3 -237.55 157.4 -236.3 152.95 -236.5 146.4 -236.85 141.35 -240.2 141.25 -240.25 141.2 -240.25 140.8 -240.5 140.4 -240.8 140.15 -241.05 139.9 -241.15 138.25 -242.45 136.8 -244 135.2 -245.75 134.05 -247.6 132.1 -250.6 131.25 -253.95 130.7 -256.5 130.65 -258.75 130.55 -261.1 130.6 -261.6 128.2 -257.05 128.5 -252.85
L 103.15 -235.45
Q 102.75 -237.05 102.7 -238.7
L 102.7 -238.75
Q 102.55 -240.45 102.75 -242 102.85 -243.4 103.25 -244.65
L 103.3 -244.7 103.3 -244.75 103.35 -244.75 103.35 -244.85
Q 103.7 -246.2 104.3 -247.4 105.35 -249.6 107.1 -251.55 107.25 -251.75 107.45 -251.95
L 113.75 -257.35
Q 123.95 -266.15 135.15 -274.95
L 140.25 -278.75
Q 146.55 -282.7 154.25 -282.3 163.85 -281.9 170.4 -274.85 171.9 -273.2 173.1 -271.45
M 0.85 -209.05
L 36.75 -204.2 29.4 -199.15
Q 27.9 -197.2 22.4 -178.95
L 2 -181.35
Q 2.25 -181.9 2.55 -182.4 5.7 -188.7 5.3 -196.25 4.9 -202.45 0.2 -208.8 0.5 -209 0.85 -209.05
M 53.45 -215.95
L 42.85 -208.5 -4.4 -215
Q -5.95 -214.9 -7.3 -214.35 -9.35 -213.5 -10.85 -211.55 -8.65 -204.15 -7.95 -199.05 -7.55 -196.15 -7.3 -193.75 -7.1 -191.75 -7 -190.1 -6.85 -187.15 -6.9 -182.95 -6.9 -182.7 -6.9 -182.45
L -6.95 -182.45 -27.55 -185.05 -27.8 -185.05
Q -28 -187.95 -28.3 -190.8 -28.35 -191.1 -28.35 -191.4 -28.6 -193.6 -28.9 -195.75 -29.2 -197.4 -29.45 -199.05 -30 -202 -30.6 -204.8 -30.85 -205.85 -31.1 -206.85 -33.9 -217.8 -37.4 -226.35 -37.45 -227.1 -37.3 -227.65 -36.75 -229.5 -33.95 -229.3
L 52 -216.95
Q 52.7 -216.45 53.45 -215.95
M 102.2 -229.15
L 102.2 -229.1 32.75 -186.85
Q 32.65 -187.1 32.6 -187.3 32.15 -188.55 32.05 -189.9 32 -190.7 32.05 -191.4 32.1 -191.75 32.15 -192.05 32.55 -194.25 34.05 -195.95 34.8 -196.85 35.8 -197.45 35.8 -197.5 35.85 -197.5
L 99.45 -241.6
Q 99.35 -240.15 99.45 -238.55 99.55 -236.2 100.15 -234.05 100.85 -231.45 102.2 -229.15
M 89.85 -160.05
L 82.7 -160.25
Q 79.95 -160.35 78.2 -158
L 74.4 -153.35 22.25 -158.7
Q 22.2 -158.75 22.15 -158.75 21.95 -159 21.75 -159.2 21.65 -159.3 21.55 -159.4 19.95 -161.05 18.1 -162.45 16.65 -163.6 15.1 -164.6 12.35 -166.45 9.15 -167.95 9.05 -168.05 8.9 -168.05 2.85 -170.65 -7.2 -172.2 -9.55 -172.6 -12.05 -172.85
L -12.1 -172.85
Q -16.05 -173.35 -20.45 -173.7 -20.55 -173.7 -20.6 -173.7
L -20.65 -173.7
Q -22.4 -173.85 -24.9 -174 -27 -174.15 -29.6 -174.3
L -29.5 -179.4 89.65 -164.95 89.85 -160.05
M 93.2 -153.4
Q 92.8 -153.6 92.35 -153.75 92.05 -153.9 91.8 -154 92.05 -154 92.35 -154 92.4 -154 92.45 -154
L 92.65 -154
Q 93.05 -154 93.45 -153.95 120.85 -152.75 136.9 -149.1 141.2 -147.75 145.05 -145 151.1 -140.7 156 -133 159.3 -127.85 161.85 -122.3
L 114.65 -126.8
Q 112.95 -137.65 105.7 -145 100.75 -150.05 93.2 -153.4
M 94.45 -135
L 94.5 -135
Q 101.75 -125.85 100.35 -110.95
L 24.5 -117.9
Q 24.45 -120.2 24.4 -122.5
L 34.1 -131.85
Q 34.5 -132.3 34.65 -132.85
L 34.7 -133.05
Q 34.7 -133.2 34.7 -133.3 34.7 -133.45 34.7 -133.55 34.65 -133.65 34.65 -133.8 34.05 -136.65 33.15 -139.35 32.85 -140.25 32.55 -141.15 30.4 -146.9 27.1 -151.9
L 74 -147.3
Q 77.5 -146.35 80.65 -145 89.1 -141.35 94.45 -135
M 109.75 -101.75
Q 109.85 -107.05 109.55 -112.35
L 150.25 -108.65
Q 150.6 -105.25 150.7 -101.75 150.75 -101.25 150.75 -100.7 150.8 -99.45 150.8 -98.15
L 137.7 -99
Q 137.3 -99.05 137 -98.8 136.65 -98.5 136.65 -98.1 136.6 -97.9 136.6 -97.65
L 136.6 -97.6
Q 136.4 -95.55 136.25 -93.4 136.25 -93 136.55 -92.65 136.8 -92.35 137.25 -92.3
L 150.7 -91.4
Q 150.3 -81 148.3 -70.75 148.2 -70.8 148.1 -70.8
L 133.55 -71.6
Q 133.2 -71.65 132.9 -71.4 132.6 -71.2 132.5 -70.85 132.35 -70.35 132.25 -69.8 132.2 -69.8 132.2 -69.75 131.75 -68 131.3 -66.2 131.2 -65.95 131.35 -65.65
L 131.3 -65.65
Q 131.4 -65.35 131.65 -65.15 131.9 -64.95 132.25 -64.95
L 146.75 -64.1
Q 144.25 -54.5 140.3 -45.5 140.15 -45.55 140 -45.55
L 125 -46.3
Q 124.65 -46.3 124.4 -46.15 124.1 -45.95 124 -45.65 123.8 -45.25 123.6 -44.8
L 123.6 -44.75
Q 123.45 -44.6 123.4 -44.35 123.3 -44.2 123.25 -44 122.5 -42.6 121.85 -41.2 121.65 -40.85 121.75 -40.5 121.85 -40.15 122.1 -39.9
L 122.15 -39.9
Q 122.4 -39.7 122.75 -39.65
L 137.15 -38.95 136.4 -37.5
Q 134.8 -34.6 133.1 -31.75 129.95 -26.6 126.2 -22 125.9 -22.3 125.55 -22.3
L 110.8 -22.5
Q 110.55 -22.5 110.3 -22.4 110.1 -22.35 109.95 -22.15 108.7 -20.55 107.35 -18.95 107.3 -18.9 107.3 -18.85
L 107.25 -18.8
Q 106.7 -18.2 106.15 -17.6 105.85 -17.25 105.85 -16.8 105.85 -16.4 106.2 -16.1 106.5 -15.85 106.9 -15.85
L 120.25 -15.65
Q 114.75 -10.35 108.2 -6.1
L 68.5 -6.1 74.6 -11.6 80.75 -18.25
Q 89.05 -28.05 94.7 -39.7 95.25 -40.85 95.85 -42.05 101.55 -54.05 104.75 -67 105.05 -68.3 105.4 -69.6 109.15 -85.25 109.7 -101.3 109.7 -101.55 109.75 -101.75
M 72.6 -192.25
Q 72.75 -191.85 72.95 -191.4 74.55 -187.45 75.65 -183.1 76.05 -181.7 76.35 -180.2 76.5 -179.4 76.65 -178.45 76.9 -177.15 77.3 -174 77.4 -173.05 77.5 -171.85
L 64.85 -173.45 65.25 -174.7
Q 65.4 -175.3 65.6 -175.95 65.9 -177.2 66.05 -178.5 66.1 -178.65 66.1 -178.8 66.35 -180.8 66.3 -182.95 66.25 -185.7 65.75 -188.65
L 72.6 -192.25
M 44.2 -176.1
L 44.25 -176.6
Q 44.35 -177 44.5 -177.45
L 60.6 -185.9
Q 60.7 -184.2 60.75 -182.65 60.7 -180.75 60.45 -178.9
L 60.45 -178.8
Q 60.25 -177.75 60.05 -176.65
L 60.05 -176.7
Q 59.9 -176.35 59.65 -175.45 59.6 -175.35 59.6 -175.25
L 59.5 -174.85
Q 59.4 -174.65 59.3 -174.25 59.3 -174.2 59.3 -174.15
L 44.2 -176.1
M 4.95 -163.2
Q 6.65 -162.65 8.2 -161.95 9.75 -161.05 11.2 -159.95 13.4 -158.4 15.35 -156.55 17.05 -154.95 18.6 -153.15 19.85 -151.65 20.95 -150.05
L 20.95 -150
Q 23.65 -146.15 25.6 -141.95 26.15 -140.65 26.65 -139.35 27.3 -137.65 28.1 -135
L -30.65 -140.1
Q -34.7 -153.85 -42.75 -159.9 -45.3 -161.75 -48.15 -162.9 -51.75 -162.05 -55.9 -160.65 -73.55 -154.75 -102.25 -139.35 -106.95 -136.85 -111.85 -134.1 -108.2 -136.85 -104.55 -139.35 -84.95 -152.9 -66.8 -161.1 -59.4 -164.45 -52.25 -166.9 -48.6 -168.2 -44.95 -169.2 -41.7 -168.95 -38.5 -168.7 -34.95 -168.5 -31.4 -168.2 -26.2 -167.9 -21.1 -167.55 -20.8 -167.5 -20.5 -167.5 -19.4 -167.45 -18.25 -167.35 -12.35 -166.95 -7.3 -166.1 -0.35 -165.05 4.95 -163.2
M 6.3 -107.65
Q 5.8 -107.65 5.45 -107.35 5.05 -107.05 5.05 -106.55
L 4.75 -101.9
Q 4.75 -101.85 4.75 -101.75 4.75 -101.4 5.05 -101.05 5.35 -100.7 5.85 -100.65
L 20.05 -99.75
Q 19.6 -89 17.85 -78.4 17.75 -78.4 17.7 -78.4
L 3.85 -79.2
Q 3.4 -79.25 3.05 -79 2.7 -78.75 2.65 -78.3
L 1.75 -73.7
Q 1.65 -73.4 1.8 -73.1 1.9 -72.8 2.2 -72.55 2.45 -72.35 2.8 -72.3
L 16.6 -71.5
Q 16.2 -69.75 15.8 -67.95 13.9 -58.95 10.6 -50.3 10.45 -50.4 10.25 -50.35
L -4.2 -51.1
Q -4.6 -51.1 -4.9 -50.9 -5.2 -50.7 -5.35 -50.35
L -7.35 -45.85
Q -7.5 -45.5 -7.35 -45.1 -7.3 -44.7 -7 -44.45 -6.7 -44.25 -6.3 -44.25
L 7.85 -43.5
Q 7.6 -43.15 7.45 -42.75 5.25 -38.05 2.7 -33.45 -0.05 -28.55 -3.45 -24.1 -3.75 -24.35 -4.15 -24.3
L -19.05 -24.55
Q -19.3 -24.6 -19.55 -24.45 -19.8 -24.35 -19.95 -24.1
L -23.6 -19.55
Q -23.95 -19.2 -23.9 -18.75 -23.9 -18.35 -23.55 -18 -23.25 -17.7 -22.75 -17.65
L -9.35 -17.5
Q -12.35 -14.55 -15.65 -12.05 -20.4 -8.6 -25.6 -6.1
L -75.5 -6.1
Q -62.9 -15 -53.7 -28.6 -42.5 -45.3 -36.65 -64.2 -36 -66.4 -35.35 -68.55 -30.85 -84.8 -29.6 -101.75 -29.6 -102.35 -29.55 -102.9 -29.35 -106.15 -29.15 -109.4 -28.85 -116.95 -28.8 -124.5
L 20.3 -121.35 20.3 -106.7 6.3 -107.65
M -39 -275.05
Q -38.65 -274.45 -38.55 -274.15 -38.15 -271.65 -39.25 -268.3
L -39.25 -268.25
Q -39.35 -267.8 -39.75 -267.3 -40.85 -267.15 -42.3 -267.4 -42.3 -267.45 -42.35 -267.6
L -42.85 -269
Q -42.9 -269.05 -42.9 -269.1
L -43.2 -269.9 -43.2 -269.95
Q -43.6 -270.85 -44.35 -270.85
L -44.4 -270.85
Q -45.8 -271.05 -47.2 -271.1 -48.1 -271.2 -48.65 -270.25
L -49.5 -269.2
Q -49.55 -269.15 -49.6 -269.05
L -50.05 -268.5
Q -50.8 -267.95 -52.05 -267.95 -55.75 -267.7 -58.85 -268.45 -59.45 -268.75 -59.7 -271.8
L -59.7 -271.85
Q -59.85 -273.85 -59.55 -276.25 -59.35 -276.4 -59.05 -276.55 -58.95 -276.65 -58.8 -276.7 -58.65 -276.8 -58.5 -276.8 -48.2 -277.8 -39 -275.05
M -65.2 -251.7
Q -64.95 -251.3 -64.65 -250.95 -63.75 -249.8 -62.6 -248.8 -61.7 -248 -60.65 -247.25 -58.45 -245.65 -55.85 -244.6 -52.25 -243.2 -48.4 -243.2 -44.3 -243.25 -41.25 -245.75
L -39.65 -248.85
Q -37.3 -248.3 -35.1 -247.2 -35.3 -244.2 -34.9 -239.9
L -34.1 -235.85 -34.2 -235.85
Q -41.95 -236.4 -49.2 -233.3 -51.1 -232.5 -52.9 -231.6 -56.25 -230 -59.6 -228.35 -62.55 -226.9 -65.5 -225.4 -66 -225.2 -67.95 -224.1 -69.65 -226.95 -73.25 -232.7
L -68.45 -229.75
Q -68.15 -235.25 -68.5 -237.85 -68.85 -240.45 -69.2 -243.25 -69.55 -246.1 -71.2 -250.8
L -65.2 -251.7
M -44.75 -267.55
Q -44.65 -267.2 -44.5 -266.85 -44.4 -266.55 -44.3 -266.15 -44.3 -266 -44.1 -265.55 -44.05 -265.3 -44 -265.1
L -43.9 -265
Q -43.6 -264.9 -43.25 -264.8 -42.95 -264.75 -42.55 -264.6 -42.45 -264.55 -42.3 -264.45 -42.25 -264.45 -41.95 -264.3 -41.7 -264.15 -41.7 -263.9 -41.9 -263.05 -41.95 -262.6 -42 -262.3 -42.2 -261.75 -42.25 -261.55 -42.3 -261.3 -42.65 -260.45 -42.9 -259.65
L -43.2 -258.9
Q -43.35 -258.65 -43.7 -258.35 -44.1 -258.05 -45 -257.65 -45.95 -257.3 -46.95 -257.15 -47.25 -257.15 -47.5 -257.1 -47.75 -257.1 -47.95 -257.1 -48.45 -257.1 -48.9 -257.1 -49.2 -257.15 -49.45 -257.15
L -51 -257.6
Q -51.75 -258 -52.5 -258.4 -53.25 -258.8 -53.8 -259.45 -54.15 -260.25 -54.35 -261.05 -54.45 -261.4 -54.55 -261.75 -54.7 -262.2 -54.8 -262.65 -54.85 -262.85 -54.85 -263 -54.9 -263.05 -54.85 -263.1
L -54.85 -263.2
Q -54.9 -263.25 -54.9 -263.3 -54.9 -263.55 -54.85 -263.75 -54.75 -264.05 -54.6 -264.35 -54.5 -264.65 -53.55 -264.8
L -53.25 -264.8
Q -52.8 -264.85 -52.1 -264.9 -51.25 -265.05 -50.25 -265.2 -49.25 -265.35 -48.4 -265.7 -48.4 -265.75 -48.3 -265.8 -48.2 -266.05 -48 -266.25 -47.85 -266.55 -47.6 -266.85 -47.4 -267.15 -47.2 -267.45 -47.05 -267.7 -46.9 -267.9 -46.9 -267.95 -46.8 -268 -46.7 -268.05 -46.6 -268.05 -45.7 -268.1 -44.8 -267.85 -44.8 -267.7 -44.75 -267.55
M -175.95 -37.75
Q -175.8 -41.35 -175.1 -44.6
L -175.1 -44.65 -171.4 -47.25
Q -172.8 -43 -173.05 -37.95 -173.15 -36 -173.05 -34.15 -173.05 -33.05 -172.9 -31.95
L -166.75 -31.75
Q -166.4 -29.45 -165.7 -27.35
L -172.1 -27.55
Q -171.8 -26.35 -171.35 -25.2
L -164.8 -25
Q -164.2 -23.45 -163.35 -22.05 -160.5 -17.3 -156.6 -15.75 -161.7 -14.65 -164.75 -16.15 -160.05 -12.7 -153.75 -15.05 -153.2 -15.35 -152.6 -15.7 -152.15 -16 -151.7 -16.3 -149.35 -18.05 -147.25 -21 -142.3 -28 -141.75 -37.95 -141.25 -47.9 -145.4 -54.95 -148.15 -59.45 -151.75 -61.05
L -147.4 -64.15
Q -146.2 -63.3 -145.05 -62.15 -145 -62.05 -144.9 -61.95 -143.45 -60.35 -142.1 -58.2 -136.95 -49.75 -137.55 -37.75 -137.95 -30.6 -140.25 -24.7 -141.3 -22.15 -142.65 -19.85 -143.15 -19.05 -143.65 -18.25 -143.95 -17.75 -144.3 -17.3 -150.35 -8.9 -158.2 -8.85 -158.25 -8.85 -158.3 -8.85 -165.65 -8.85 -170.6 -15.95 -171.05 -16.6 -171.45 -17.3 -175.2 -23.5 -175.9 -31.5 -176 -32.65 -176 -33.8 -176.05 -35.7 -175.95 -37.75
M -46.2 -109.4
Q -47 -119.95 -51.8 -128.05 -52.55 -129.25 -53.3 -130.3
L -47.15 -134.65
Q -46.8 -134.05 -46.4 -133.4 -40.1 -123.1 -39.35 -109.4 -39.25 -107.3 -39.3 -105.05 -39.3 -103.45 -39.35 -101.75 -39.95 -90.65 -43.55 -81.5 -45.1 -77.6 -47.2 -74 -48 -72.75 -48.8 -71.55 -49.3 -70.8 -49.8 -70.1 -50.4 -69.3 -50.95 -68.55 -59.9 -57.05 -71.35 -56.9 -71.45 -56.9 -71.55 -56.9 -82.85 -56.95 -90.5 -68 -90.7 -68.3 -90.9 -68.55 -91.4 -69.3 -91.9 -70.1 -97.7 -79.65 -98.75 -92.1 -98.9 -93.85 -99 -95.65 -99.05 -96.9 -99 -98.15
L -94.3 -101.5
Q -94.45 -98.75 -94.3 -96.1 -94.25 -94.35 -94 -92.7
L -84.55 -92.4
Q -84 -88.85 -83 -85.65
L -92.8 -85.95
Q -92.35 -84.1 -91.7 -82.25
L -81.65 -82
Q -80.65 -79.65 -79.35 -77.45 -75.6 -71.2 -70.65 -68.55 -69.85 -68.15 -69 -67.8 -76.8 -66.1 -81.5 -68.4 -74.25 -63.1 -64.65 -66.75
L -64.6 -66.75
Q -63.75 -67.2 -62.85 -67.75 -62.2 -68.15 -61.55 -68.55 -61.5 -68.65 -61.45 -68.7 -57.85 -71.35 -54.6 -75.9 -47.05 -86.65 -46.15 -101.75 -46.2 -101.85 -46.15 -101.9
L -46.15 -101.95
Q -46.05 -103.65 -46.05 -105.3 -46.05 -107.4 -46.2 -109.4
M -107.35 -92.3
Q -107.2 -83.7 -105.6 -79.35 -111.25 -75.6 -121.6 -68.55 -126.6 -65.2 -132.7 -61 -133.6 -62.35 -134.5 -63.5 -137.35 -67.1 -140.55 -68.95
L -107.35 -92.3
M -112.45 -62.7
Q -112.45 -62.65 -112.4 -62.6
L -112.25 -62.7
Q -111.75 -61.7 -111.05 -60.8
L -110.3 -59.9
Q -109.6 -59.15 -108.75 -58.55
L -119.85 -53.1 -120.6 -57.7 -112.45 -62.7
M -131.85 -28.05
Q -130.7 -32.65 -128 -36.25 -125.45 -39.7 -122.4 -40.8 -121.45 -41 -120.25 -41.25 -119.85 -41.3 -119.4 -41.3 -115.9 -41.35 -113.4 -38.6 -113.35 -38.55 -113.25 -38.5 -112.4 -37.55 -111.65 -36.25 -109 -31.6 -109.25 -25.2 -109.3 -24.55 -109.35 -23.9 -109.75 -19.6 -111.25 -16.05 -111.9 -14.55 -112.75 -13.1 -113.05 -12.65 -113.4 -12.15 -113.6 -11.85 -113.8 -11.6 -114.05 -11.3 -114.3 -10.95 -117.9 -6.5 -122.35 -6.45
L -122.4 -6.45
Q -126.85 -6.45 -129.7 -10.75 -129.75 -10.85 -129.85 -10.95 -130.05 -11.3 -130.2 -11.6 -132.3 -15.3 -132.55 -20.15 -132.6 -20.85 -132.6 -21.5 -132.6 -22.7 -132.5 -23.9 -132.45 -24.55 -132.35 -25.2 -132.15 -26.65 -131.85 -28.05
M -86.35 -49.4
Q -85.8 -49.45 -85.25 -49.45 -80.95 -49.45 -77.95 -46.1 -77.9 -46.05 -77.8 -46 -76.8 -44.8 -75.9 -43.2 -72.75 -37.5 -73.25 -29.65 -73.3 -28.9 -73.35 -28.1 -73.95 -22.8 -75.9 -18.45 -76.75 -16.55 -77.85 -14.85 -78.25 -14.25 -78.65 -13.65 -78.95 -13.35 -79.2 -13 -79.5 -12.6 -79.8 -12.25 -84.35 -6.75 -89.8 -6.7 -89.85 -6.7 -89.9 -6.7 -95.3 -6.75 -98.65 -12 -98.75 -12.1 -98.85 -12.25 -99.05 -12.6 -99.25 -13 -101.8 -17.55 -101.95 -23.45 -102 -24.3 -102 -25.2 -101.95 -26.6 -101.75 -28.1 -101.7 -28.9 -101.55 -29.65 -101.3 -31.5 -100.85 -33.15 -99.4 -38.85 -95.95 -43.2 -92.75 -47.4 -89 -48.75 -87.8 -49.05 -86.35 -49.4
M -84.75 -43.45
Q -85.35 -43.65 -85.95 -43.65 -86.3 -43.75 -86.65 -43.75 -90.85 -43.75 -94.3 -39.15 -95.5 -37.65 -96.3 -35.85 -97.7 -33.05 -98.25 -29.6 -98.35 -28.9 -98.4 -28.2 -98.55 -26.95 -98.55 -25.75 -98.6 -25 -98.55 -24.3
L -94.55 -24.2
Q -94.4 -22.7 -94.05 -21.35
L -98.15 -21.45
Q -98.05 -20.7 -97.8 -19.95
L -93.6 -19.85
Q -93.25 -18.85 -92.75 -17.9 -91.3 -15.25 -89.2 -14.15 -88.9 -14 -88.6 -13.9 -88.95 -13.8 -89.25 -13.75 -92.1 -13.25 -93.85 -14.1 -90.9 -11.9 -86.8 -13.4 -86.4 -13.65 -86 -13.85 -85.75 -14 -85.45 -14.15 -85.45 -14.2 -85.4 -14.2 -83.85 -15.35 -82.35 -17.25 -78.9 -21.8 -78.15 -28.2 -78.1 -28.9 -78.1 -29.6 -77.8 -35.15 -80 -39.15 -81.9 -42.65 -84.75 -43.45
M -126.6 -32.95
Q -127.55 -31.7 -128.2 -30.25 -129.3 -27.95 -129.65 -25.15 -129.75 -24.6 -129.75 -24 -129.85 -22.95 -129.85 -21.95 -129.85 -21.4 -129.8 -20.8
L -126.5 -20.7
Q -126.4 -19.5 -126.1 -18.4
L -129.45 -18.5
Q -129.35 -17.85 -129.1 -17.25
L -125.7 -17.15
Q -125.4 -16.35 -124.95 -15.6 -123.7 -13.45 -122 -12.5 -121.75 -12.4 -121.5 -12.3 -121.8 -12.25 -122.05 -12.15 -124.35 -11.8 -125.75 -12.5 -123.35 -10.7 -120 -11.95 -119.7 -12.1 -119.4 -12.25 -119.2 -12.4 -118.95 -12.5 -118.95 -12.55 -118.9 -12.55 -117.65 -13.5 -116.5 -15.05 -113.75 -18.75 -113.25 -24 -113.25 -24.6 -113.2 -25.15 -113.05 -29.65 -114.9 -32.95 -116.55 -35.8 -118.9 -36.45 -119.35 -36.6 -119.85 -36.6 -120.15 -36.65 -120.4 -36.65 -123.85 -36.65 -126.6 -32.95
M 71.3 -119.4
Q 71.3 -118.2 72.15 -117.35 73 -116.5 74.2 -116.5 75.4 -116.55 76.25 -117.35 77.1 -118.2 77.1 -119.4 77.1 -120.6 76.25 -121.45 75.4 -122.35 74.2 -122.3 73 -122.35 72.15 -121.45 71.3 -120.6 71.3 -119.4
M 56.4 -123.4
L 56.45 -123.4
Q 55.6 -124.3 54.4 -124.3 53.2 -124.3 52.35 -123.4 51.45 -122.6 51.45 -121.4 51.45 -120.15 52.35 -119.3
L 52.35 -119.35
Q 53.2 -118.5 54.4 -118.5 55.6 -118.5 56.4 -119.3
L 56.45 -119.35
Q 57.25 -120.2 57.3 -121.4 57.25 -122.6 56.4 -123.4
M 36.65 -125.45
Q 35.8 -126.35 34.55 -126.35 33.4 -126.35 32.55 -125.45 31.7 -124.6 31.7 -123.4 31.7 -122.2 32.55 -121.35
L 32.55 -121.4
Q 33.4 -120.55 34.55 -120.55 35.8 -120.55 36.65 -121.35
L 36.65 -121.4
Q 37.45 -122.2 37.5 -123.4 37.5 -124.6 36.65 -125.45
M 94.1 -115.5
Q 94.9 -116.35 94.95 -117.55 94.9 -118.75 94.05 -119.55
L 94.1 -119.55
Q 93.25 -120.45 92.05 -120.45 90.85 -120.45 90 -119.55 89.1 -118.75 89.1 -117.55 89.1 -116.3 90 -115.45
L 90 -115.5
Q 90.85 -114.65 92.05 -114.6 93.25 -114.65 94.05 -115.45
L 94.1 -115.5
M -18.2 -192.25
Q -18.85 -192.25 -19.35 -191.9 -19.7 -191.7 -20 -191.35 -20.75 -190.5 -20.7 -189.3 -20.7 -188.6 -20.4 -188 -20.2 -187.6 -19.85 -187.25 -19.8 -187.15 -19.65 -187.05 -19.5 -186.9 -19.3 -186.8 -18.75 -186.45 -18.05 -186.45 -16.95 -186.5 -16.2 -187.35 -15.5 -188.2 -15.55 -189.4 -15.55 -190.6 -16.3 -191.45 -17.1 -192.3 -18.2 -192.25
M -21.8 -208.05
Q -21.95 -207.9 -22.05 -207.75 -22.8 -206.9 -22.8 -205.75 -22.8 -205.7 -22.8 -205.6 -22.75 -204.45 -21.95 -203.65 -21.2 -202.85 -20.1 -202.9 -19.95 -202.9 -19.75 -202.9 -18.9 -203.05 -18.3 -203.75 -17.55 -204.6 -17.6 -205.85 -17.65 -207 -18.4 -207.85 -18.55 -208 -18.65 -208.1 -19.35 -208.7 -20.25 -208.7 -21.15 -208.7 -21.8 -208.05
M -22.65 -222.85
Q -23.4 -223.7 -24.45 -223.65 -25.55 -223.65 -26.3 -222.75 -27.05 -221.9 -27 -220.7 -26.95 -219.45 -26.15 -218.65 -25.4 -217.85 -24.35 -217.85 -23.95 -217.85 -23.55 -218 -23 -218.2 -22.5 -218.75 -21.85 -219.5 -21.8 -220.55 -21.8 -220.7 -21.8 -220.8 -21.85 -222 -22.65 -222.85
M 167.15 -273.65
Q 165.3 -275.8 162 -277.3 161.4 -277.6 160.8 -277.8 158.35 -278.6 155.65 -278.7 147.9 -279.05 142.25 -273.85 136.6 -268.65 136.35 -260.95 136.25 -258.2 136.9 -255.65
L 136.9 -255.6
Q 137.6 -252.85 139.2 -250.35
L 139.25 -250.3
Q 139.3 -250.25 139.35 -250.2 140.25 -248.85 141.4 -247.6
L 141.4 -247.55
Q 141.75 -247.2 142.15 -246.8
L 142.2 -246.8
Q 144.15 -244.85 146.5 -243.6 150.1 -241.7 154.5 -241.5 162.25 -241.15 167.9 -246.35 171.55 -249.7 172.1 -252.25
L 150.25 -245.8
Q 148.4 -246.45 146.8 -247.6
L 173.85 -260.35
Q 173.9 -260.1 173.9 -260.9 173.85 -264.7 172.35 -266.4
L 144.05 -250.1
Q 141.8 -252.6 140.95 -255.7
L 161.85 -275
Q 163.4 -275.25 166.45 -274 166.8 -273.85 167.15 -273.65 Z"/>

<path fill="#FFFFFF" stroke="none" d="
M -85.25 -49.45
Q -85.8 -49.45 -86.35 -49.4 -87.8 -49.05 -89 -48.75 -92.75 -47.4 -95.95 -43.2 -99.4 -38.85 -100.85 -33.15 -101.3 -31.5 -101.55 -29.65 -101.7 -28.9 -101.75 -28.1 -101.95 -26.6 -102 -25.2 -102 -24.3 -101.95 -23.45 -101.8 -17.55 -99.25 -13 -99.05 -12.6 -98.85 -12.25 -98.75 -12.1 -98.65 -12 -95.3 -6.75 -89.9 -6.7 -89.85 -6.7 -89.8 -6.7 -84.35 -6.75 -79.8 -12.25 -79.5 -12.6 -79.2 -13 -78.95 -13.35 -78.65 -13.65 -78.25 -14.25 -77.85 -14.85 -76.75 -16.55 -75.9 -18.45 -73.95 -22.8 -73.35 -28.1 -73.3 -28.9 -73.25 -29.65 -72.75 -37.5 -75.9 -43.2 -76.8 -44.8 -77.8 -46 -77.9 -46.05 -77.95 -46.1 -80.95 -49.45 -85.25 -49.45
M -85.95 -43.65
Q -85.35 -43.65 -84.75 -43.45 -81.9 -42.65 -80 -39.15 -77.8 -35.15 -78.1 -29.6 -78.1 -28.9 -78.15 -28.2 -78.9 -21.8 -82.35 -17.25 -83.85 -15.35 -85.4 -14.2 -85.45 -14.2 -85.45 -14.15 -85.75 -14 -86 -13.85 -86.4 -13.65 -86.8 -13.4 -90.9 -11.9 -93.85 -14.1 -92.1 -13.25 -89.25 -13.75 -88.95 -13.8 -88.6 -13.9 -88.9 -14 -89.2 -14.15 -91.3 -15.25 -92.75 -17.9 -93.25 -18.85 -93.6 -19.85
L -97.8 -19.95
Q -98.05 -20.7 -98.15 -21.45
L -94.05 -21.35
Q -94.4 -22.7 -94.55 -24.2
L -98.55 -24.3
Q -98.6 -25 -98.55 -25.75 -98.55 -26.95 -98.4 -28.2 -98.35 -28.9 -98.25 -29.6 -97.7 -33.05 -96.3 -35.85 -95.5 -37.65 -94.3 -39.15 -90.85 -43.75 -86.65 -43.75 -86.3 -43.75 -85.95 -43.65
M -128 -36.25
Q -130.7 -32.65 -131.85 -28.05 -132.15 -26.65 -132.35 -25.2 -132.45 -24.55 -132.5 -23.9 -132.6 -22.7 -132.6 -21.5 -132.6 -20.85 -132.55 -20.15 -132.3 -15.3 -130.2 -11.6 -130.05 -11.3 -129.85 -10.95 -129.75 -10.85 -129.7 -10.75 -126.85 -6.45 -122.4 -6.45
L -122.35 -6.45
Q -117.9 -6.5 -114.3 -10.95 -114.05 -11.3 -113.8 -11.6 -113.6 -11.85 -113.4 -12.15 -113.05 -12.65 -112.75 -13.1 -111.9 -14.55 -111.25 -16.05 -109.75 -19.6 -109.35 -23.9 -109.3 -24.55 -109.25 -25.2 -109 -31.6 -111.65 -36.25 -112.4 -37.55 -113.25 -38.5 -113.35 -38.55 -113.4 -38.6 -115.9 -41.35 -119.4 -41.3 -119.85 -41.3 -120.25 -41.25 -121.45 -41 -122.4 -40.8 -125.45 -39.7 -128 -36.25
M -128.2 -30.25
Q -127.55 -31.7 -126.6 -32.95 -123.85 -36.65 -120.4 -36.65 -120.15 -36.65 -119.85 -36.6 -119.35 -36.6 -118.9 -36.45 -116.55 -35.8 -114.9 -32.95 -113.05 -29.65 -113.2 -25.15 -113.25 -24.6 -113.25 -24 -113.75 -18.75 -116.5 -15.05 -117.65 -13.5 -118.9 -12.55 -118.95 -12.55 -118.95 -12.5 -119.2 -12.4 -119.4 -12.25 -119.7 -12.1 -120 -11.95 -123.35 -10.7 -125.75 -12.5 -124.35 -11.8 -122.05 -12.15 -121.8 -12.25 -121.5 -12.3 -121.75 -12.4 -122 -12.5 -123.7 -13.45 -124.95 -15.6 -125.4 -16.35 -125.7 -17.15
L -129.1 -17.25
Q -129.35 -17.85 -129.45 -18.5
L -126.1 -18.4
Q -126.4 -19.5 -126.5 -20.7
L -129.8 -20.8
Q -129.85 -21.4 -129.85 -21.95 -129.85 -22.95 -129.75 -24 -129.75 -24.6 -129.65 -25.15 -129.3 -27.95 -128.2 -30.25
M -112.4 -62.6
Q -112.45 -62.65 -112.45 -62.7
L -120.6 -57.7 -119.85 -53.1 -108.75 -58.55
Q -109.6 -59.15 -110.3 -59.9
L -111.05 -60.8
Q -111.75 -61.7 -112.25 -62.7
L -112.4 -62.6
M -105.6 -79.35
Q -107.2 -83.7 -107.35 -92.3
L -140.55 -68.95
Q -137.35 -67.1 -134.5 -63.5 -133.6 -62.35 -132.7 -61 -126.6 -65.2 -121.6 -68.55 -111.25 -75.6 -105.6 -79.35
M -51.8 -128.05
Q -47 -119.95 -46.2 -109.4 -46.05 -107.4 -46.05 -105.3 -46.05 -103.65 -46.15 -101.95
L -46.15 -101.9
Q -46.2 -101.85 -46.15 -101.75 -47.05 -86.65 -54.6 -75.9 -57.85 -71.35 -61.45 -68.7 -61.5 -68.65 -61.55 -68.55 -62.2 -68.15 -62.85 -67.75 -63.75 -67.2 -64.6 -66.75
L -64.65 -66.75
Q -74.25 -63.1 -81.5 -68.4 -76.8 -66.1 -69 -67.8 -69.85 -68.15 -70.65 -68.55 -75.6 -71.2 -79.35 -77.45 -80.65 -79.65 -81.65 -82
L -91.7 -82.25
Q -92.35 -84.1 -92.8 -85.95
L -83 -85.65
Q -84 -88.85 -84.55 -92.4
L -94 -92.7
Q -94.25 -94.35 -94.3 -96.1 -94.45 -98.75 -94.3 -101.5
L -99 -98.15
Q -99.05 -96.9 -99 -95.65 -98.9 -93.85 -98.75 -92.1 -97.7 -79.65 -91.9 -70.1 -91.4 -69.3 -90.9 -68.55 -90.7 -68.3 -90.5 -68 -82.85 -56.95 -71.55 -56.9 -71.45 -56.9 -71.35 -56.9 -59.9 -57.05 -50.95 -68.55 -50.4 -69.3 -49.8 -70.1 -49.3 -70.8 -48.8 -71.55 -48 -72.75 -47.2 -74 -45.1 -77.6 -43.55 -81.5 -39.95 -90.65 -39.35 -101.75 -39.3 -103.45 -39.3 -105.05 -39.25 -107.3 -39.35 -109.4 -40.1 -123.1 -46.4 -133.4 -46.8 -134.05 -47.15 -134.65
L -53.3 -130.3
Q -52.55 -129.25 -51.8 -128.05
M -175.1 -44.6
Q -175.8 -41.35 -175.95 -37.75 -176.05 -35.7 -176 -33.8 -176 -32.65 -175.9 -31.5 -175.2 -23.5 -171.45 -17.3 -171.05 -16.6 -170.6 -15.95 -165.65 -8.85 -158.3 -8.85 -158.25 -8.85 -158.2 -8.85 -150.35 -8.9 -144.3 -17.3 -143.95 -17.75 -143.65 -18.25 -143.15 -19.05 -142.65 -19.85 -141.3 -22.15 -140.25 -24.7 -137.95 -30.6 -137.55 -37.75 -136.95 -49.75 -142.1 -58.2 -143.45 -60.35 -144.9 -61.95 -145 -62.05 -145.05 -62.15 -146.2 -63.3 -147.4 -64.15
L -151.75 -61.05
Q -148.15 -59.45 -145.4 -54.95 -141.25 -47.9 -141.75 -37.95 -142.3 -28 -147.25 -21 -149.35 -18.05 -151.7 -16.3 -152.15 -16 -152.6 -15.7 -153.2 -15.35 -153.75 -15.05 -160.05 -12.7 -164.75 -16.15 -161.7 -14.65 -156.6 -15.75 -160.5 -17.3 -163.35 -22.05 -164.2 -23.45 -164.8 -25
L -171.35 -25.2
Q -171.8 -26.35 -172.1 -27.55
L -165.7 -27.35
Q -166.4 -29.45 -166.75 -31.75
L -172.9 -31.95
Q -173.05 -33.05 -173.05 -34.15 -173.15 -36 -173.05 -37.95 -172.8 -43 -171.4 -47.25
L -175.1 -44.65 -175.1 -44.6
M -44.5 -266.85
Q -44.65 -267.2 -44.75 -267.55 -44.8 -267.7 -44.8 -267.85 -45.7 -268.1 -46.6 -268.05 -46.7 -268.05 -46.8 -268 -46.9 -267.95 -46.9 -267.9 -47.05 -267.7 -47.2 -267.45 -47.4 -267.15 -47.6 -266.85 -47.85 -266.55 -48 -266.25 -48.2 -266.05 -48.3 -265.8 -48.4 -265.75 -48.4 -265.7 -49.25 -265.35 -50.25 -265.2 -51.25 -265.05 -52.1 -264.9 -52.8 -264.85 -53.25 -264.8
L -53.55 -264.8
Q -54.5 -264.65 -54.6 -264.35 -54.75 -264.05 -54.85 -263.75 -54.9 -263.55 -54.9 -263.3 -54.9 -263.25 -54.85 -263.2
L -54.85 -263.1
Q -54.9 -263.05 -54.85 -263 -54.85 -262.85 -54.8 -262.65 -54.7 -262.2 -54.55 -261.75 -54.45 -261.4 -54.35 -261.05 -54.15 -260.25 -53.8 -259.45 -53.25 -258.8 -52.5 -258.4 -51.75 -258 -51 -257.6
L -49.45 -257.15
Q -49.2 -257.15 -48.9 -257.1 -48.45 -257.1 -47.95 -257.1 -47.75 -257.1 -47.5 -257.1 -47.25 -257.15 -46.95 -257.15 -45.95 -257.3 -45 -257.65 -44.1 -258.05 -43.7 -258.35 -43.35 -258.65 -43.2 -258.9
L -42.9 -259.65
Q -42.65 -260.45 -42.3 -261.3 -42.25 -261.55 -42.2 -261.75 -42 -262.3 -41.95 -262.6 -41.9 -263.05 -41.7 -263.9 -41.7 -264.15 -41.95 -264.3 -42.25 -264.45 -42.3 -264.45 -42.45 -264.55 -42.55 -264.6 -42.95 -264.75 -43.25 -264.8 -43.6 -264.9 -43.9 -265
L -44 -265.1
Q -44.05 -265.3 -44.1 -265.55 -44.3 -266 -44.3 -266.15 -44.4 -266.55 -44.5 -266.85
M -64.65 -250.95
Q -64.95 -251.3 -65.2 -251.7
L -71.2 -250.8
Q -69.55 -246.1 -69.2 -243.25 -68.85 -240.45 -68.5 -237.85 -68.15 -235.25 -68.45 -229.75
L -73.25 -232.7
Q -69.65 -226.95 -67.95 -224.1 -66 -225.2 -65.5 -225.4 -62.55 -226.9 -59.6 -228.35 -56.25 -230 -52.9 -231.6 -51.1 -232.5 -49.2 -233.3 -41.95 -236.4 -34.2 -235.85
L -34.1 -235.85 -34.9 -239.9
Q -35.3 -244.2 -35.1 -247.2 -37.3 -248.3 -39.65 -248.85
L -41.25 -245.75
Q -44.3 -243.25 -48.4 -243.2 -52.25 -243.2 -55.85 -244.6 -58.45 -245.65 -60.65 -247.25 -61.7 -248 -62.6 -248.8 -63.75 -249.8 -64.65 -250.95
M -38.55 -274.15
Q -38.65 -274.45 -39 -275.05 -48.2 -277.8 -58.5 -276.8 -58.65 -276.8 -58.8 -276.7 -58.95 -276.65 -59.05 -276.55 -59.35 -276.4 -59.55 -276.25 -59.85 -273.85 -59.7 -271.85
L -59.7 -271.8
Q -59.45 -268.75 -58.85 -268.45 -55.75 -267.7 -52.05 -267.95 -50.8 -267.95 -50.05 -268.5
L -49.6 -269.05
Q -49.55 -269.15 -49.5 -269.2
L -48.65 -270.25
Q -48.1 -271.2 -47.2 -271.1 -45.8 -271.05 -44.4 -270.85
L -44.35 -270.85
Q -43.6 -270.85 -43.2 -269.95
L -43.2 -269.9 -42.9 -269.1
Q -42.9 -269.05 -42.85 -269
L -42.35 -267.6
Q -42.3 -267.45 -42.3 -267.4 -40.85 -267.15 -39.75 -267.3 -39.35 -267.8 -39.25 -268.25
L -39.25 -268.3
Q -38.15 -271.65 -38.55 -274.15
M 5.45 -107.35
Q 5.8 -107.65 6.3 -107.65
L 20.3 -106.7 20.3 -121.35 -28.8 -124.5
Q -28.85 -116.95 -29.15 -109.4 -29.35 -106.15 -29.55 -102.9 -29.6 -102.35 -29.6 -101.75 -30.85 -84.8 -35.35 -68.55 -36 -66.4 -36.65 -64.2 -42.5 -45.3 -53.7 -28.6 -62.9 -15 -75.5 -6.1
L -25.6 -6.1
Q -20.4 -8.6 -15.65 -12.05 -12.35 -14.55 -9.35 -17.5
L -22.75 -17.65
Q -23.25 -17.7 -23.55 -18 -23.9 -18.35 -23.9 -18.75 -23.95 -19.2 -23.6 -19.55
L -19.95 -24.1
Q -19.8 -24.35 -19.55 -24.45 -19.3 -24.6 -19.05 -24.55
L -4.15 -24.3
Q -3.75 -24.35 -3.45 -24.1 -0.05 -28.55 2.7 -33.45 5.25 -38.05 7.45 -42.75 7.6 -43.15 7.85 -43.5
L -6.3 -44.25
Q -6.7 -44.25 -7 -44.45 -7.3 -44.7 -7.35 -45.1 -7.5 -45.5 -7.35 -45.85
L -5.35 -50.35
Q -5.2 -50.7 -4.9 -50.9 -4.6 -51.1 -4.2 -51.1
L 10.25 -50.35
Q 10.45 -50.4 10.6 -50.3 13.9 -58.95 15.8 -67.95 16.2 -69.75 16.6 -71.5
L 2.8 -72.3
Q 2.45 -72.35 2.2 -72.55 1.9 -72.8 1.8 -73.1 1.65 -73.4 1.75 -73.7
L 2.65 -78.3
Q 2.7 -78.75 3.05 -79 3.4 -79.25 3.85 -79.2
L 17.7 -78.4
Q 17.75 -78.4 17.85 -78.4 19.6 -89 20.05 -99.75
L 5.85 -100.65
Q 5.35 -100.7 5.05 -101.05 4.75 -101.4 4.75 -101.75 4.75 -101.85 4.75 -101.9
L 5.05 -106.55
Q 5.05 -107.05 5.45 -107.35
M 8.2 -161.95
Q 6.65 -162.65 4.95 -163.2 -0.35 -165.05 -7.3 -166.1 -12.35 -166.95 -18.25 -167.35 -19.4 -167.45 -20.5 -167.5 -20.8 -167.5 -21.1 -167.55 -26.2 -167.9 -31.4 -168.2 -34.95 -168.5 -38.5 -168.7 -41.7 -168.95 -44.95 -169.2 -48.6 -168.2 -52.25 -166.9 -59.4 -164.45 -66.8 -161.1 -84.95 -152.9 -104.55 -139.35 -108.2 -136.85 -111.85 -134.1 -106.95 -136.85 -102.25 -139.35 -73.55 -154.75 -55.9 -160.65 -51.75 -162.05 -48.15 -162.9 -45.3 -161.75 -42.75 -159.9 -34.7 -153.85 -30.65 -140.1
L 28.1 -135
Q 27.3 -137.65 26.65 -139.35 26.15 -140.65 25.6 -141.95 23.65 -146.15 20.95 -150
L 20.95 -150.05
Q 19.85 -151.65 18.6 -153.15 17.05 -154.95 15.35 -156.55 13.4 -158.4 11.2 -159.95 9.75 -161.05 8.2 -161.95
M 44.25 -176.6
L 44.2 -176.1 59.3 -174.15
Q 59.3 -174.2 59.3 -174.25 59.4 -174.65 59.5 -174.85
L 59.6 -175.25
Q 59.6 -175.35 59.65 -175.45 59.9 -176.35 60.05 -176.7
L 60.05 -176.65
Q 60.25 -177.75 60.45 -178.8
L 60.45 -178.9
Q 60.7 -180.75 60.75 -182.65 60.7 -184.2 60.6 -185.9
L 44.5 -177.45
Q 44.35 -177 44.25 -176.6
M 72.95 -191.4
Q 72.75 -191.85 72.6 -192.25
L 65.75 -188.65
Q 66.25 -185.7 66.3 -182.95 66.35 -180.8 66.1 -178.8 66.1 -178.65 66.05 -178.5 65.9 -177.2 65.6 -175.95 65.4 -175.3 65.25 -174.7
L 64.85 -173.45 77.5 -171.85
Q 77.4 -173.05 77.3 -174 76.9 -177.15 76.65 -178.45 76.5 -179.4 76.35 -180.2 76.05 -181.7 75.65 -183.1 74.55 -187.45 72.95 -191.4
M 109.55 -112.35
Q 109.85 -107.05 109.75 -101.75 109.7 -101.55 109.7 -101.3 109.15 -85.25 105.4 -69.6 105.05 -68.3 104.75 -67 101.55 -54.05 95.85 -42.05 95.25 -40.85 94.7 -39.7 89.05 -28.05 80.75 -18.25
L 74.6 -11.6 68.5 -6.1 108.2 -6.1
Q 114.75 -10.35 120.25 -15.65
L 106.9 -15.85
Q 106.5 -15.85 106.2 -16.1 105.85 -16.4 105.85 -16.8 105.85 -17.25 106.15 -17.6 106.7 -18.2 107.25 -18.8
L 107.3 -18.85
Q 107.3 -18.9 107.35 -18.95 108.7 -20.55 109.95 -22.15 110.1 -22.35 110.3 -22.4 110.55 -22.5 110.8 -22.5
L 125.55 -22.3
Q 125.9 -22.3 126.2 -22 129.95 -26.6 133.1 -31.75 134.8 -34.6 136.4 -37.5
L 137.15 -38.95 122.75 -39.65
Q 122.4 -39.7 122.15 -39.9
L 122.1 -39.9
Q 121.85 -40.15 121.75 -40.5 121.65 -40.85 121.85 -41.2 122.5 -42.6 123.25 -44 123.3 -44.2 123.4 -44.35 123.45 -44.6 123.6 -44.75
L 123.6 -44.8
Q 123.8 -45.25 124 -45.65 124.1 -45.95 124.4 -46.15 124.65 -46.3 125 -46.3
L 140 -45.55
Q 140.15 -45.55 140.3 -45.5 144.25 -54.5 146.75 -64.1
L 132.25 -64.95
Q 131.9 -64.95 131.65 -65.15 131.4 -65.35 131.3 -65.65
L 131.35 -65.65
Q 131.2 -65.95 131.3 -66.2 131.75 -68 132.2 -69.75 132.2 -69.8 132.25 -69.8 132.35 -70.35 132.5 -70.85 132.6 -71.2 132.9 -71.4 133.2 -71.65 133.55 -71.6
L 148.1 -70.8
Q 148.2 -70.8 148.3 -70.75 150.3 -81 150.7 -91.4
L 137.25 -92.3
Q 136.8 -92.35 136.55 -92.65 136.25 -93 136.25 -93.4 136.4 -95.55 136.6 -97.6
L 136.6 -97.65
Q 136.6 -97.9 136.65 -98.1 136.65 -98.5 137 -98.8 137.3 -99.05 137.7 -99
L 150.8 -98.15
Q 150.8 -99.45 150.75 -100.7 150.75 -101.25 150.7 -101.75 150.6 -105.25 150.25 -108.65
L 109.55 -112.35
M 94.5 -135
L 94.45 -135
Q 89.1 -141.35 80.65 -145 77.5 -146.35 74 -147.3
L 27.1 -151.9
Q 30.4 -146.9 32.55 -141.15 32.85 -140.25 33.15 -139.35 34.05 -136.65 34.65 -133.8 34.65 -133.65 34.7 -133.55 34.7 -133.45 34.7 -133.3 34.7 -133.2 34.7 -133.05
L 34.65 -132.85
Q 34.5 -132.3 34.1 -131.85
L 24.4 -122.5
Q 24.45 -120.2 24.5 -117.9
L 100.35 -110.95
Q 101.75 -125.85 94.5 -135
M 94.95 -117.55
Q 94.9 -116.35 94.1 -115.5
L 94.05 -115.45
Q 93.25 -114.65 92.05 -114.6 90.85 -114.65 90 -115.5
L 90 -115.45
Q 89.1 -116.3 89.1 -117.55 89.1 -118.75 90 -119.55 90.85 -120.45 92.05 -120.45 93.25 -120.45 94.1 -119.55
L 94.05 -119.55
Q 94.9 -118.75 94.95 -117.55
M 34.55 -126.35
Q 35.8 -126.35 36.65 -125.45 37.5 -124.6 37.5 -123.4 37.45 -122.2 36.65 -121.4
L 36.65 -121.35
Q 35.8 -120.55 34.55 -120.55 33.4 -120.55 32.55 -121.4
L 32.55 -121.35
Q 31.7 -122.2 31.7 -123.4 31.7 -124.6 32.55 -125.45 33.4 -126.35 34.55 -126.35
M 56.45 -123.4
L 56.4 -123.4
Q 57.25 -122.6 57.3 -121.4 57.25 -120.2 56.45 -119.35
L 56.4 -119.3
Q 55.6 -118.5 54.4 -118.5 53.2 -118.5 52.35 -119.35
L 52.35 -119.3
Q 51.45 -120.15 51.45 -121.4 51.45 -122.6 52.35 -123.4 53.2 -124.3 54.4 -124.3 55.6 -124.3 56.45 -123.4
M 72.15 -117.35
Q 71.3 -118.2 71.3 -119.4 71.3 -120.6 72.15 -121.45 73 -122.35 74.2 -122.3 75.4 -122.35 76.25 -121.45 77.1 -120.6 77.1 -119.4 77.1 -118.2 76.25 -117.35 75.4 -116.55 74.2 -116.5 73 -116.5 72.15 -117.35
M 92.35 -153.75
Q 92.8 -153.6 93.2 -153.4 100.75 -150.05 105.7 -145 112.95 -137.65 114.65 -126.8
L 161.85 -122.3
Q 159.3 -127.85 156 -133 151.1 -140.7 145.05 -145 141.2 -147.75 136.9 -149.1 120.85 -152.75 93.45 -153.95 93.05 -154 92.65 -154
L 92.45 -154
Q 92.4 -154 92.35 -154 92.05 -154 91.8 -154 92.05 -153.9 92.35 -153.75
M 82.7 -160.25
L 89.85 -160.05 89.65 -164.95 -29.5 -179.4 -29.6 -174.3
Q -27 -174.15 -24.9 -174 -22.4 -173.85 -20.65 -173.7
L -20.6 -173.7
Q -20.55 -173.7 -20.45 -173.7 -16.05 -173.35 -12.1 -172.85
L -12.05 -172.85
Q -9.55 -172.6 -7.2 -172.2 2.85 -170.65 8.9 -168.05 9.05 -168.05 9.15 -167.95 12.35 -166.45 15.1 -164.6 16.65 -163.6 18.1 -162.45 19.95 -161.05 21.55 -159.4 21.65 -159.3 21.75 -159.2 21.95 -159 22.15 -158.75 22.2 -158.75 22.25 -158.7
L 74.4 -153.35 78.2 -158
Q 79.95 -160.35 82.7 -160.25
M 102.2 -229.1
L 102.2 -229.15
Q 100.85 -231.45 100.15 -234.05 99.55 -236.2 99.45 -238.55 99.35 -240.15 99.45 -241.6
L 35.85 -197.5
Q 35.8 -197.5 35.8 -197.45 34.8 -196.85 34.05 -195.95 32.55 -194.25 32.15 -192.05 32.1 -191.75 32.05 -191.4 32 -190.7 32.05 -189.9 32.15 -188.55 32.6 -187.3 32.65 -187.1 32.75 -186.85
L 102.2 -229.1
M 42.85 -208.5
L 53.45 -215.95
Q 52.7 -216.45 52 -216.95
L -33.95 -229.3
Q -36.75 -229.5 -37.3 -227.65 -37.45 -227.1 -37.4 -226.35 -33.9 -217.8 -31.1 -206.85 -30.85 -205.85 -30.6 -204.8 -30 -202 -29.45 -199.05 -29.2 -197.4 -28.9 -195.75 -28.6 -193.6 -28.35 -191.4 -28.35 -191.1 -28.3 -190.8 -28 -187.95 -27.8 -185.05
L -27.55 -185.05 -6.95 -182.45 -6.9 -182.45
Q -6.9 -182.7 -6.9 -182.95 -6.85 -187.15 -7 -190.1 -7.1 -191.75 -7.3 -193.75 -7.55 -196.15 -7.95 -199.05 -8.65 -204.15 -10.85 -211.55 -9.35 -213.5 -7.3 -214.35 -5.95 -214.9 -4.4 -215
L 42.85 -208.5
M -24.45 -223.65
Q -23.4 -223.7 -22.65 -222.85 -21.85 -222 -21.8 -220.8 -21.8 -220.7 -21.8 -220.55 -21.85 -219.5 -22.5 -218.75 -23 -218.2 -23.55 -218 -23.95 -217.85 -24.35 -217.85 -25.4 -217.85 -26.15 -218.65 -26.95 -219.45 -27 -220.7 -27.05 -221.9 -26.3 -222.75 -25.55 -223.65 -24.45 -223.65
M -22.05 -207.75
Q -21.95 -207.9 -21.8 -208.05 -21.15 -208.7 -20.25 -208.7 -19.35 -208.7 -18.65 -208.1 -18.55 -208 -18.4 -207.85 -17.65 -207 -17.6 -205.85 -17.55 -204.6 -18.3 -203.75 -18.9 -203.05 -19.75 -202.9 -19.95 -202.9 -20.1 -202.9 -21.2 -202.85 -21.95 -203.65 -22.75 -204.45 -22.8 -205.6 -22.8 -205.7 -22.8 -205.75 -22.8 -206.9 -22.05 -207.75
M -19.35 -191.9
Q -18.85 -192.25 -18.2 -192.25 -17.1 -192.3 -16.3 -191.45 -15.55 -190.6 -15.55 -189.4 -15.5 -188.2 -16.2 -187.35 -16.95 -186.5 -18.05 -186.45 -18.75 -186.45 -19.3 -186.8 -19.5 -186.9 -19.65 -187.05 -19.8 -187.15 -19.85 -187.25 -20.2 -187.6 -20.4 -188 -20.7 -188.6 -20.7 -189.3 -20.75 -190.5 -20 -191.35 -19.7 -191.7 -19.35 -191.9
M 36.75 -204.2
L 0.85 -209.05
Q 0.5 -209 0.2 -208.8 4.9 -202.45 5.3 -196.25 5.7 -188.7 2.55 -182.4 2.25 -181.9 2 -181.35
L 22.4 -178.95
Q 27.9 -197.2 29.4 -199.15
L 36.75 -204.2
M 176.7 -258.3
Q 176.9 -265.6 173.1 -271.45 171.9 -273.2 170.4 -274.85 163.85 -281.9 154.25 -282.3 146.55 -282.7 140.25 -278.75
L 135.15 -274.95
Q 123.95 -266.15 113.75 -257.35
L 107.45 -251.95
Q 107.25 -251.75 107.1 -251.55 105.35 -249.6 104.3 -247.4 103.7 -246.2 103.35 -244.85
L 103.35 -244.75 103.3 -244.75 103.3 -244.7 103.25 -244.65
Q 102.85 -243.4 102.75 -242 102.55 -240.45 102.7 -238.75
L 102.7 -238.7
Q 102.75 -237.05 103.15 -235.45
L 128.5 -252.85
Q 128.2 -257.05 130.6 -261.6 130.55 -261.1 130.65 -258.75 130.7 -256.5 131.25 -253.95 132.1 -250.6 134.05 -247.6 135.2 -245.75 136.8 -244 138.25 -242.45 139.9 -241.15 140.15 -241.05 140.4 -240.8 140.8 -240.5 141.2 -240.25 141.25 -240.25 141.35 -240.2 146.4 -236.85 152.95 -236.5 157.4 -236.3 161.3 -237.55 161.35 -237.6 161.4 -237.6 161.4 -237.65 161.45 -237.65
L 161.5 -237.65
Q 165.8 -239.15 169.5 -242.5 176.4 -248.9 176.7 -258.3
M 162 -277.3
Q 165.3 -275.8 167.15 -273.65 166.8 -273.85 166.45 -274 163.4 -275.25 161.85 -275
L 140.95 -255.7
Q 141.8 -252.6 144.05 -250.1
L 172.35 -266.4
Q 173.85 -264.7 173.9 -260.9 173.9 -260.1 173.85 -260.35
L 146.8 -247.6
Q 148.4 -246.45 150.25 -245.8
L 172.1 -252.25
Q 171.55 -249.7 167.9 -246.35 162.25 -241.15 154.5 -241.5 150.1 -241.7 146.5 -243.6 144.15 -244.85 142.2 -246.8
L 142.15 -246.8
Q 141.75 -247.2 141.4 -247.55
L 141.4 -247.6
Q 140.25 -248.85 139.35 -250.2 139.3 -250.25 139.25 -250.3
L 139.2 -250.35
Q 137.6 -252.85 136.9 -255.6
L 136.9 -255.65
Q 136.25 -258.2 136.35 -260.95 136.6 -268.65 142.25 -273.85 147.9 -279.05 155.65 -278.7 158.35 -278.6 160.8 -277.8 161.4 -277.6 162 -277.3 Z"/>
</g>
</g>
</g>
</g>
</g>
</g>
</svg>
